%TF.GenerationSoftware,KiCad,Pcbnew,7.0.8*%
%TF.CreationDate,2025-02-14T01:10:42+05:30*%
%TF.ProjectId,7 segmetn display,37207365-676d-4657-946e-20646973706c,rev?*%
%TF.SameCoordinates,Original*%
%TF.FileFunction,Copper,L2,Bot*%
%TF.FilePolarity,Positive*%
%FSLAX46Y46*%
G04 Gerber Fmt 4.6, Leading zero omitted, Abs format (unit mm)*
G04 Created by KiCad (PCBNEW 7.0.8) date 2025-02-14 01:10:42*
%MOMM*%
%LPD*%
G01*
G04 APERTURE LIST*
%TA.AperFunction,ComponentPad*%
%ADD10R,1.700000X1.700000*%
%TD*%
%TA.AperFunction,ComponentPad*%
%ADD11C,1.700000*%
%TD*%
%TA.AperFunction,ComponentPad*%
%ADD12C,1.600000*%
%TD*%
%TA.AperFunction,ComponentPad*%
%ADD13O,1.600000X1.600000*%
%TD*%
%TA.AperFunction,ComponentPad*%
%ADD14R,1.600000X1.600000*%
%TD*%
%TA.AperFunction,ComponentPad*%
%ADD15O,1.700000X1.700000*%
%TD*%
%TA.AperFunction,ViaPad*%
%ADD16C,0.800000*%
%TD*%
%TA.AperFunction,Conductor*%
%ADD17C,0.635000*%
%TD*%
%TA.AperFunction,Conductor*%
%ADD18C,1.270000*%
%TD*%
%TA.AperFunction,Conductor*%
%ADD19C,0.250000*%
%TD*%
G04 APERTURE END LIST*
D10*
%TO.P,U2,1,E*%
%TO.N,Net-(U1-e)*%
X108232500Y-120267500D03*
D11*
%TO.P,U2,2,D*%
%TO.N,Net-(U1-d)*%
X110732500Y-120267500D03*
%TO.P,U2,3,CC*%
%TO.N,Net-(R2-Pad2)*%
X113232500Y-120267500D03*
%TO.P,U2,4,C*%
%TO.N,Net-(U1-c)*%
X115732500Y-120267500D03*
%TO.P,U2,5,DP*%
%TO.N,unconnected-(U2-DP-Pad5)*%
X118232500Y-120267500D03*
%TO.P,U2,6,B*%
%TO.N,Net-(U1-b)*%
X120732500Y-120267500D03*
%TO.P,U2,9,F*%
%TO.N,Net-(U1-f)*%
X108232500Y-117767500D03*
%TO.P,U2,10,G*%
%TO.N,Net-(U1-g)*%
X110732500Y-117767500D03*
%TO.P,U2,11*%
%TO.N,N/C*%
X120732500Y-117767500D03*
%TO.P,U2,13*%
X108232500Y-92767500D03*
%TO.P,U2,14*%
X110732500Y-92767500D03*
%TO.P,U2,15*%
X113232500Y-92767500D03*
%TO.P,U2,16*%
X123232500Y-92767500D03*
%TO.P,U2,17*%
X125732500Y-92767500D03*
%TO.P,U2,18*%
X108232500Y-90267500D03*
%TO.P,U2,19*%
X110732500Y-90267500D03*
%TO.P,U2,20*%
X113232500Y-90267500D03*
%TO.P,U2,21*%
X115732500Y-90267500D03*
%TO.P,U2,22*%
X118232500Y-90267500D03*
%TO.P,U2,23*%
X120732500Y-90267500D03*
%TO.P,U2,24*%
X123232500Y-90267500D03*
%TO.P,U2,25*%
X125732500Y-90267500D03*
%TD*%
D12*
%TO.P,R5,1*%
%TO.N,Net-(U1-A)*%
X157480000Y-111760000D03*
D13*
%TO.P,R5,2*%
%TO.N,GND*%
X157480000Y-99060000D03*
%TD*%
D14*
%TO.P,U1,1,B*%
%TO.N,Net-(U1-B)*%
X167650000Y-90185000D03*
D13*
%TO.P,U1,2,C*%
%TO.N,Net-(U1-C)*%
X167650000Y-92725000D03*
%TO.P,U1,3,LT*%
%TO.N,+5V*%
X167650000Y-95265000D03*
%TO.P,U1,4,BI*%
X167650000Y-97805000D03*
%TO.P,U1,5,RBI*%
X167650000Y-100345000D03*
%TO.P,U1,6,D*%
%TO.N,Net-(U1-D)*%
X167650000Y-102885000D03*
%TO.P,U1,7,A*%
%TO.N,Net-(U1-A)*%
X167650000Y-105425000D03*
%TO.P,U1,8,GND*%
%TO.N,GND*%
X167650000Y-107965000D03*
%TO.P,U1,9,e*%
%TO.N,Net-(U1-e)*%
X175270000Y-107965000D03*
%TO.P,U1,10,d*%
%TO.N,Net-(U1-d)*%
X175270000Y-105425000D03*
%TO.P,U1,11,c*%
%TO.N,Net-(U1-c)*%
X175270000Y-102885000D03*
%TO.P,U1,12,b*%
%TO.N,Net-(U1-b)*%
X175270000Y-100345000D03*
%TO.P,U1,13,a*%
%TO.N,Net-(U1-a)*%
X175270000Y-97805000D03*
%TO.P,U1,14,g*%
%TO.N,Net-(U1-g)*%
X175270000Y-95265000D03*
%TO.P,U1,15,f*%
%TO.N,Net-(U1-f)*%
X175270000Y-92725000D03*
%TO.P,U1,16,VCC*%
%TO.N,+5V*%
X175270000Y-90185000D03*
%TD*%
D12*
%TO.P,R1,1*%
%TO.N,Net-(U1-B)*%
X134620000Y-104140000D03*
D13*
%TO.P,R1,2*%
%TO.N,GND*%
X147320000Y-104140000D03*
%TD*%
D14*
%TO.P,SW1,1*%
%TO.N,+5V*%
X135890000Y-96520000D03*
D13*
%TO.P,SW1,2*%
X138430000Y-96520000D03*
%TO.P,SW1,3*%
X140970000Y-96520000D03*
%TO.P,SW1,4*%
X143510000Y-96520000D03*
%TO.P,SW1,5*%
%TO.N,Net-(U1-B)*%
X143510000Y-88900000D03*
%TO.P,SW1,6*%
%TO.N,Net-(U1-C)*%
X140970000Y-88900000D03*
%TO.P,SW1,7*%
%TO.N,Net-(U1-D)*%
X138430000Y-88900000D03*
%TO.P,SW1,8*%
%TO.N,Net-(U1-A)*%
X135890000Y-88900000D03*
%TD*%
D12*
%TO.P,R3,1*%
%TO.N,Net-(U1-C)*%
X134620000Y-119380000D03*
D13*
%TO.P,R3,2*%
%TO.N,GND*%
X147320000Y-119380000D03*
%TD*%
D12*
%TO.P,R4,1*%
%TO.N,Net-(U1-D)*%
X153670000Y-119380000D03*
D13*
%TO.P,R4,2*%
%TO.N,GND*%
X166370000Y-119380000D03*
%TD*%
D10*
%TO.P,J1,1,Pin_1*%
%TO.N,+5V*%
X176530000Y-118110000D03*
D15*
%TO.P,J1,2,Pin_2*%
%TO.N,GND*%
X176530000Y-120650000D03*
%TD*%
D12*
%TO.P,R2,1*%
%TO.N,+5V*%
X134620000Y-111760000D03*
D13*
%TO.P,R2,2*%
%TO.N,Net-(R2-Pad2)*%
X147320000Y-111760000D03*
%TD*%
D16*
%TO.N,+5V*%
X157480000Y-95250000D03*
%TO.N,GND*%
X153670000Y-102870000D03*
%TO.N,Net-(U1-D)*%
X156210000Y-93980000D03*
%TO.N,Net-(U1-A)*%
X161290000Y-115570000D03*
X140970000Y-107950000D03*
%TO.N,Net-(U1-d)*%
X170180000Y-90170000D03*
X170180000Y-90170000D03*
X172720000Y-99060000D03*
%TD*%
D17*
%TO.N,+5V*%
X171831974Y-91083025D02*
X167650000Y-95265000D01*
X174000000Y-90185000D02*
X175270000Y-90185000D01*
D18*
X135890000Y-96520000D02*
X143510000Y-96520000D01*
D19*
X135890000Y-96520000D02*
X133325331Y-96520000D01*
X113237636Y-121437844D02*
X110727363Y-121437844D01*
D17*
X157480000Y-95250000D02*
X156845000Y-95885000D01*
D19*
X124221351Y-103370016D02*
X129477575Y-98113792D01*
D17*
X155311974Y-96520000D02*
X143510000Y-96520000D01*
D19*
X109557500Y-119017500D02*
X109557500Y-120267980D01*
D17*
X167650000Y-97805000D02*
X167650000Y-100345000D01*
X167650000Y-97805000D02*
X167650000Y-95265000D01*
D19*
X118554839Y-113353792D02*
X115557051Y-116351580D01*
X122938594Y-103901351D02*
X110784368Y-116055577D01*
X114407500Y-119126843D02*
X114407500Y-120267980D01*
X122402595Y-111760000D02*
X134620000Y-111760000D01*
X122402595Y-111759982D02*
G75*
G03*
X118554839Y-113353792I5J-5441518D01*
G01*
X123579973Y-103635656D02*
G75*
G03*
X122938595Y-103901352I27J-907044D01*
G01*
X115557033Y-116351562D02*
G75*
G03*
X114407500Y-119126843I2775267J-2775238D01*
G01*
X133325331Y-96520008D02*
G75*
G03*
X129477576Y-98113793I-31J-5441492D01*
G01*
X110784367Y-116055576D02*
G75*
G03*
X109557500Y-119017500I2961933J-2961924D01*
G01*
X109900167Y-121095177D02*
G75*
G03*
X110727363Y-121437844I827233J827177D01*
G01*
X109557525Y-120267980D02*
G75*
G03*
X109900145Y-121095199I1169875J-20D01*
G01*
D17*
X174000000Y-90184985D02*
G75*
G03*
X171831975Y-91083026I0J-3066015D01*
G01*
D19*
X123579973Y-103635653D02*
G75*
G03*
X124221351Y-103370016I27J907053D01*
G01*
D17*
X155311974Y-96519989D02*
G75*
G03*
X156845000Y-95885000I26J2167989D01*
G01*
D19*
X113237636Y-121437875D02*
G75*
G03*
X114064855Y-121095199I-36J1169875D01*
G01*
X114064872Y-121095216D02*
G75*
G03*
X114407500Y-120267980I-827272J827216D01*
G01*
D17*
%TO.N,GND*%
X151501974Y-104140000D02*
X147320000Y-104140000D01*
X153670000Y-102870000D02*
X153035000Y-103505000D01*
X151501974Y-104139989D02*
G75*
G03*
X153035000Y-103505000I26J2167989D01*
G01*
%TO.N,Net-(U1-D)*%
X141916207Y-92386207D02*
X138430000Y-88900000D01*
D18*
X166832500Y-103702500D02*
X167650000Y-102885000D01*
D17*
X156210000Y-93980000D02*
X145763963Y-93980000D01*
D18*
X165125813Y-107924186D02*
X153670000Y-119380000D01*
X166015000Y-105676119D02*
X166015000Y-105777500D01*
X165125819Y-107924192D02*
G75*
G03*
X166015000Y-105777500I-2146719J2146692D01*
G01*
X166832494Y-103702494D02*
G75*
G03*
X166015000Y-105676119I1973606J-1973606D01*
G01*
D17*
X141916215Y-92386199D02*
G75*
G03*
X145763963Y-93980000I3847785J3847799D01*
G01*
%TO.N,Net-(U1-A)*%
X171442928Y-109217928D02*
X167650000Y-105425000D01*
X166480877Y-114214122D02*
X171442928Y-109252071D01*
X163207500Y-115570000D02*
X161290000Y-115570000D01*
X155263792Y-109543792D02*
X157480000Y-111760000D01*
X151416036Y-107950000D02*
X140970000Y-107950000D01*
X163207500Y-115569985D02*
G75*
G03*
X166480876Y-114214121I0J4629285D01*
G01*
X155263784Y-109543800D02*
G75*
G03*
X151416036Y-107950000I-3847784J-3847800D01*
G01*
X171442920Y-109252063D02*
G75*
G03*
X171450000Y-109235000I-17020J17063D01*
G01*
X171450012Y-109235000D02*
G75*
G03*
X171442928Y-109217928I-24112J0D01*
G01*
%TO.N,Net-(U1-d)*%
X170180000Y-90170000D02*
X168952857Y-88942857D01*
X173995000Y-104150000D02*
X175270000Y-105425000D01*
X166849999Y-88867500D02*
X168557784Y-88867500D01*
X172720000Y-99060000D02*
X172720000Y-101071877D01*
X168770928Y-88867500D02*
X168557784Y-88867500D01*
X128522593Y-102477406D02*
X110732500Y-120267500D01*
X132370349Y-100883614D02*
X164332501Y-100883614D01*
X166332500Y-89384999D02*
X166332500Y-98883615D01*
X168952846Y-88942868D02*
G75*
G03*
X168770928Y-88867500I-181946J-181932D01*
G01*
X132370349Y-100883660D02*
G75*
G03*
X128522594Y-102477407I-49J-5441540D01*
G01*
X166484072Y-89019072D02*
G75*
G03*
X166332500Y-89384999I365928J-365928D01*
G01*
X166849999Y-88867500D02*
G75*
G03*
X166484072Y-89019072I1J-517500D01*
G01*
X172720010Y-101071877D02*
G75*
G03*
X173995001Y-104149999I4353090J-23D01*
G01*
X164332501Y-100883600D02*
G75*
G03*
X166332500Y-98883615I-1J2000000D01*
G01*
%TO.N,Net-(U1-c)*%
X174200991Y-109282500D02*
X175257858Y-109282500D01*
X160279660Y-121596207D02*
X171456606Y-110419261D01*
X176587500Y-107952858D02*
X176587500Y-105134113D01*
X120721519Y-123190000D02*
X156431904Y-123190000D01*
X117193750Y-121728750D02*
X115732500Y-120267500D01*
X175928750Y-103543750D02*
X175270000Y-102885000D01*
X176587494Y-105134113D02*
G75*
G03*
X175928750Y-103543750I-2249094J13D01*
G01*
X117193744Y-121728756D02*
G75*
G03*
X120721519Y-123190000I3527756J3527756D01*
G01*
X175257858Y-109282482D02*
G75*
G03*
X176198056Y-108893056I42J1329582D01*
G01*
X176198069Y-108893069D02*
G75*
G03*
X176587500Y-107952858I-940169J940169D01*
G01*
X156431904Y-123189987D02*
G75*
G03*
X160279660Y-121596207I-4J5441587D01*
G01*
X174200991Y-109282480D02*
G75*
G03*
X171456606Y-110419261I9J-3881120D01*
G01*
%TO.N,Net-(U1-g)*%
X168543739Y-88032500D02*
X173832424Y-88032500D01*
X176587500Y-93015886D02*
X176587500Y-90787575D01*
X175928750Y-94606250D02*
X175270000Y-95265000D01*
X126857593Y-101642406D02*
X110732500Y-117767500D01*
X155867454Y-98454821D02*
X164695983Y-89626292D01*
X152019698Y-100048614D02*
X130705349Y-100048614D01*
X175780550Y-88839450D02*
G75*
G03*
X173832424Y-88032500I-1948150J-1948150D01*
G01*
X152019698Y-100048622D02*
G75*
G03*
X155867454Y-98454821I2J5441522D01*
G01*
X168543739Y-88032513D02*
G75*
G03*
X164695983Y-89626292I-39J-5441487D01*
G01*
X175928754Y-94606254D02*
G75*
G03*
X176587500Y-93015886I-1590354J1590354D01*
G01*
X176587510Y-90787575D02*
G75*
G03*
X175780557Y-88839443I-2755110J-25D01*
G01*
X130705349Y-100048660D02*
G75*
G03*
X126857594Y-101642407I-49J-5441540D01*
G01*
%TD*%
%TA.AperFunction,Conductor*%
%TO.N,GND*%
G36*
X166424791Y-100879074D02*
G01*
X166480725Y-100920945D01*
X166493837Y-100942846D01*
X166514956Y-100988136D01*
X166519431Y-100997732D01*
X166519432Y-100997734D01*
X166649954Y-101184141D01*
X166810858Y-101345045D01*
X166810861Y-101345047D01*
X166997266Y-101475568D01*
X167055275Y-101502618D01*
X167107714Y-101548791D01*
X167126866Y-101615984D01*
X167106650Y-101682865D01*
X167055275Y-101727382D01*
X166997267Y-101754431D01*
X166997265Y-101754432D01*
X166810858Y-101884954D01*
X166649954Y-102045858D01*
X166519432Y-102232265D01*
X166519431Y-102232267D01*
X166423260Y-102438504D01*
X166423260Y-102438505D01*
X166407190Y-102498476D01*
X166375097Y-102554061D01*
X166065902Y-102863257D01*
X166065882Y-102863268D01*
X165908349Y-103020800D01*
X165687948Y-103283463D01*
X165687949Y-103283463D01*
X165687948Y-103283464D01*
X165654316Y-103331496D01*
X165491283Y-103564331D01*
X165491280Y-103564335D01*
X165491280Y-103564336D01*
X165348085Y-103812359D01*
X165319839Y-103861282D01*
X165174931Y-104172040D01*
X165174931Y-104172039D01*
X165157035Y-104221210D01*
X165057662Y-104494239D01*
X164968920Y-104825437D01*
X164909381Y-105163110D01*
X164886470Y-105424998D01*
X164879499Y-105504686D01*
X164879500Y-105622028D01*
X164879500Y-105775462D01*
X164879367Y-105779518D01*
X164863507Y-106021497D01*
X164862447Y-106029546D01*
X164815540Y-106265360D01*
X164813439Y-106273201D01*
X164736147Y-106500901D01*
X164733040Y-106508401D01*
X164626701Y-106724039D01*
X164622642Y-106731070D01*
X164489053Y-106931001D01*
X164484111Y-106937442D01*
X164324307Y-107119663D01*
X164321535Y-107122624D01*
X164296698Y-107147462D01*
X153339061Y-118105097D01*
X153283476Y-118137190D01*
X153223505Y-118153260D01*
X153223504Y-118153260D01*
X153017267Y-118249431D01*
X153017265Y-118249432D01*
X152830858Y-118379954D01*
X152669954Y-118540858D01*
X152539432Y-118727265D01*
X152539431Y-118727267D01*
X152443261Y-118933502D01*
X152443258Y-118933511D01*
X152384366Y-119153302D01*
X152384364Y-119153313D01*
X152364532Y-119379998D01*
X152364532Y-119380001D01*
X152384364Y-119606686D01*
X152384366Y-119606697D01*
X152443258Y-119826488D01*
X152443261Y-119826497D01*
X152539431Y-120032732D01*
X152539432Y-120032734D01*
X152669954Y-120219141D01*
X152830858Y-120380045D01*
X152830861Y-120380047D01*
X153017266Y-120510568D01*
X153223504Y-120606739D01*
X153443308Y-120665635D01*
X153605230Y-120679801D01*
X153669998Y-120685468D01*
X153670000Y-120685468D01*
X153670002Y-120685468D01*
X153726673Y-120680509D01*
X153896692Y-120665635D01*
X154116496Y-120606739D01*
X154322734Y-120510568D01*
X154509139Y-120380047D01*
X154670047Y-120219139D01*
X154800568Y-120032734D01*
X154896739Y-119826496D01*
X154912808Y-119766521D01*
X154944899Y-119710938D01*
X165851423Y-108804413D01*
X165851430Y-108804408D01*
X165858490Y-108797347D01*
X165858492Y-108797347D01*
X165892413Y-108763426D01*
X165892441Y-108763410D01*
X166016655Y-108639195D01*
X166057525Y-108598324D01*
X166057524Y-108598324D01*
X166057530Y-108598319D01*
X166057529Y-108598319D01*
X166223856Y-108400094D01*
X166282026Y-108361393D01*
X166351887Y-108360284D01*
X166411257Y-108397121D01*
X166431227Y-108427396D01*
X166519865Y-108617482D01*
X166650342Y-108803820D01*
X166811179Y-108964657D01*
X166997517Y-109095134D01*
X167203673Y-109191265D01*
X167203682Y-109191269D01*
X167399999Y-109243872D01*
X167400000Y-109243871D01*
X167400000Y-108280686D01*
X167411955Y-108292641D01*
X167524852Y-108350165D01*
X167618519Y-108365000D01*
X167681481Y-108365000D01*
X167775148Y-108350165D01*
X167888045Y-108292641D01*
X167900000Y-108280686D01*
X167900000Y-109243872D01*
X168096317Y-109191269D01*
X168096326Y-109191265D01*
X168302482Y-109095134D01*
X168488820Y-108964657D01*
X168649657Y-108803820D01*
X168780134Y-108617482D01*
X168876265Y-108411326D01*
X168876269Y-108411317D01*
X168935139Y-108191610D01*
X168935141Y-108191599D01*
X168938081Y-108157992D01*
X168963532Y-108092923D01*
X169020122Y-108051943D01*
X169089884Y-108048064D01*
X169149290Y-108081116D01*
X170215492Y-109147318D01*
X170248977Y-109208641D01*
X170243993Y-109278333D01*
X170215492Y-109322680D01*
X165902497Y-113635676D01*
X165659322Y-113858502D01*
X165655176Y-113861980D01*
X165395694Y-114061085D01*
X165391261Y-114064189D01*
X165115414Y-114239920D01*
X165110728Y-114242625D01*
X164820602Y-114393655D01*
X164815700Y-114395940D01*
X164513518Y-114521107D01*
X164508445Y-114522953D01*
X164196510Y-114621306D01*
X164191283Y-114622706D01*
X163871957Y-114693498D01*
X163866628Y-114694438D01*
X163542359Y-114737128D01*
X163536968Y-114737600D01*
X163491549Y-114739583D01*
X163207500Y-114751985D01*
X163207165Y-114752000D01*
X161693062Y-114752000D01*
X161642626Y-114741279D01*
X161569806Y-114708857D01*
X161569802Y-114708855D01*
X161424001Y-114677865D01*
X161384646Y-114669500D01*
X161195354Y-114669500D01*
X161162897Y-114676398D01*
X161010197Y-114708855D01*
X161010192Y-114708857D01*
X160837270Y-114785848D01*
X160837265Y-114785851D01*
X160684129Y-114897111D01*
X160557466Y-115037785D01*
X160462821Y-115201715D01*
X160462818Y-115201722D01*
X160404327Y-115381740D01*
X160404326Y-115381744D01*
X160384540Y-115570000D01*
X160404326Y-115758256D01*
X160404327Y-115758259D01*
X160462818Y-115938277D01*
X160462821Y-115938284D01*
X160557467Y-116102216D01*
X160678567Y-116236711D01*
X160684129Y-116242888D01*
X160837265Y-116354148D01*
X160837270Y-116354151D01*
X161010192Y-116431142D01*
X161010197Y-116431144D01*
X161195354Y-116470500D01*
X161195355Y-116470500D01*
X161384644Y-116470500D01*
X161384646Y-116470500D01*
X161569803Y-116431144D01*
X161624099Y-116406969D01*
X161642626Y-116398721D01*
X161693062Y-116388000D01*
X163254915Y-116388000D01*
X163255447Y-116387985D01*
X163421525Y-116387985D01*
X163848241Y-116354402D01*
X163848242Y-116354402D01*
X163934381Y-116340759D01*
X164084883Y-116316922D01*
X164154177Y-116325877D01*
X164207629Y-116370873D01*
X164228268Y-116437624D01*
X164209543Y-116504938D01*
X164191962Y-116527076D01*
X159762044Y-120956996D01*
X159731647Y-120987393D01*
X159701250Y-121017790D01*
X159540190Y-121165372D01*
X159405864Y-121288457D01*
X159401718Y-121291935D01*
X159086014Y-121534181D01*
X159081582Y-121537285D01*
X158745961Y-121751098D01*
X158741274Y-121753803D01*
X158388295Y-121937551D01*
X158383394Y-121939836D01*
X158015743Y-122092121D01*
X158010670Y-122093967D01*
X157631150Y-122213629D01*
X157625923Y-122215029D01*
X157237413Y-122301159D01*
X157232084Y-122302099D01*
X156837559Y-122354039D01*
X156832168Y-122354511D01*
X156795111Y-122356129D01*
X156431903Y-122371987D01*
X156431614Y-122372000D01*
X120810534Y-122372000D01*
X120810514Y-122371999D01*
X120807491Y-122371999D01*
X120721516Y-122372000D01*
X120360690Y-122356247D01*
X120355300Y-122355775D01*
X119999915Y-122308989D01*
X119994585Y-122308049D01*
X119644617Y-122230464D01*
X119639397Y-122229065D01*
X119466724Y-122174623D01*
X119297525Y-122121275D01*
X119292447Y-122119427D01*
X119041772Y-122015595D01*
X118961265Y-121982248D01*
X118956368Y-121979965D01*
X118638411Y-121814447D01*
X118633726Y-121811742D01*
X118591177Y-121784635D01*
X118545213Y-121732013D01*
X118534995Y-121662895D01*
X118563768Y-121599224D01*
X118622396Y-121561217D01*
X118625688Y-121560286D01*
X118653021Y-121552962D01*
X118696150Y-121541407D01*
X118696153Y-121541405D01*
X118696163Y-121541403D01*
X118910330Y-121441535D01*
X119103901Y-121305995D01*
X119270995Y-121138901D01*
X119380925Y-120981905D01*
X119435502Y-120938280D01*
X119505000Y-120931086D01*
X119567355Y-120962609D01*
X119584075Y-120981905D01*
X119694000Y-121138895D01*
X119694005Y-121138901D01*
X119861099Y-121305995D01*
X119957884Y-121373765D01*
X120054665Y-121441532D01*
X120054667Y-121441533D01*
X120054670Y-121441535D01*
X120268837Y-121541403D01*
X120268843Y-121541404D01*
X120268844Y-121541405D01*
X120271065Y-121542000D01*
X120497092Y-121602563D01*
X120673534Y-121618000D01*
X120732499Y-121623159D01*
X120732500Y-121623159D01*
X120732501Y-121623159D01*
X120791466Y-121618000D01*
X120967908Y-121602563D01*
X121196163Y-121541403D01*
X121410330Y-121441535D01*
X121603901Y-121305995D01*
X121770995Y-121138901D01*
X121906535Y-120945330D01*
X122006403Y-120731163D01*
X122067563Y-120502908D01*
X122088159Y-120267500D01*
X122067563Y-120032092D01*
X122006403Y-119803837D01*
X121906535Y-119589671D01*
X121894436Y-119572391D01*
X121770994Y-119396097D01*
X121754898Y-119380001D01*
X133314532Y-119380001D01*
X133334364Y-119606686D01*
X133334366Y-119606697D01*
X133393258Y-119826488D01*
X133393261Y-119826497D01*
X133489431Y-120032732D01*
X133489432Y-120032734D01*
X133619954Y-120219141D01*
X133780858Y-120380045D01*
X133780861Y-120380047D01*
X133967266Y-120510568D01*
X134173504Y-120606739D01*
X134393308Y-120665635D01*
X134555230Y-120679801D01*
X134619998Y-120685468D01*
X134620000Y-120685468D01*
X134620002Y-120685468D01*
X134676673Y-120680509D01*
X134846692Y-120665635D01*
X135066496Y-120606739D01*
X135272734Y-120510568D01*
X135459139Y-120380047D01*
X135620047Y-120219139D01*
X135750568Y-120032734D01*
X135846739Y-119826496D01*
X135905635Y-119606692D01*
X135925468Y-119380000D01*
X135924560Y-119369627D01*
X135914519Y-119254852D01*
X135905635Y-119153308D01*
X135899389Y-119129999D01*
X146041127Y-119129999D01*
X146041128Y-119130000D01*
X147004314Y-119130000D01*
X146992359Y-119141955D01*
X146934835Y-119254852D01*
X146915014Y-119380000D01*
X146934835Y-119505148D01*
X146992359Y-119618045D01*
X147004314Y-119630000D01*
X146041128Y-119630000D01*
X146093730Y-119826317D01*
X146093734Y-119826326D01*
X146189865Y-120032482D01*
X146320342Y-120218820D01*
X146481179Y-120379657D01*
X146667517Y-120510134D01*
X146873673Y-120606265D01*
X146873682Y-120606269D01*
X147069999Y-120658872D01*
X147070000Y-120658871D01*
X147070000Y-119695686D01*
X147081955Y-119707641D01*
X147194852Y-119765165D01*
X147288519Y-119780000D01*
X147351481Y-119780000D01*
X147445148Y-119765165D01*
X147558045Y-119707641D01*
X147570000Y-119695686D01*
X147570000Y-120658872D01*
X147766317Y-120606269D01*
X147766326Y-120606265D01*
X147972482Y-120510134D01*
X148158820Y-120379657D01*
X148319657Y-120218820D01*
X148450134Y-120032482D01*
X148546265Y-119826326D01*
X148546269Y-119826317D01*
X148598872Y-119630000D01*
X147635686Y-119630000D01*
X147647641Y-119618045D01*
X147705165Y-119505148D01*
X147724986Y-119380000D01*
X147705165Y-119254852D01*
X147647641Y-119141955D01*
X147635686Y-119130000D01*
X148598872Y-119130000D01*
X148598872Y-119129999D01*
X148546269Y-118933682D01*
X148546265Y-118933673D01*
X148450134Y-118727517D01*
X148319657Y-118541179D01*
X148158820Y-118380342D01*
X147972482Y-118249865D01*
X147766328Y-118153734D01*
X147570000Y-118101127D01*
X147570000Y-119064314D01*
X147558045Y-119052359D01*
X147445148Y-118994835D01*
X147351481Y-118980000D01*
X147288519Y-118980000D01*
X147194852Y-118994835D01*
X147081955Y-119052359D01*
X147070000Y-119064314D01*
X147070000Y-118101127D01*
X146873671Y-118153734D01*
X146667517Y-118249865D01*
X146481179Y-118380342D01*
X146320342Y-118541179D01*
X146189865Y-118727517D01*
X146093734Y-118933673D01*
X146093730Y-118933682D01*
X146041127Y-119129999D01*
X135899389Y-119129999D01*
X135848379Y-118939625D01*
X135846741Y-118933511D01*
X135846738Y-118933502D01*
X135836637Y-118911841D01*
X135750568Y-118727266D01*
X135620047Y-118540861D01*
X135620045Y-118540858D01*
X135459141Y-118379954D01*
X135272734Y-118249432D01*
X135272732Y-118249431D01*
X135066497Y-118153261D01*
X135066488Y-118153258D01*
X134846697Y-118094366D01*
X134846693Y-118094365D01*
X134846692Y-118094365D01*
X134846691Y-118094364D01*
X134846686Y-118094364D01*
X134620002Y-118074532D01*
X134619998Y-118074532D01*
X134393313Y-118094364D01*
X134393302Y-118094366D01*
X134173511Y-118153258D01*
X134173502Y-118153261D01*
X133967267Y-118249431D01*
X133967265Y-118249432D01*
X133780858Y-118379954D01*
X133619954Y-118540858D01*
X133489432Y-118727265D01*
X133489431Y-118727267D01*
X133393261Y-118933502D01*
X133393258Y-118933511D01*
X133334366Y-119153302D01*
X133334364Y-119153313D01*
X133314532Y-119379998D01*
X133314532Y-119380001D01*
X121754898Y-119380001D01*
X121603902Y-119229006D01*
X121603896Y-119229001D01*
X121446905Y-119119075D01*
X121403280Y-119064498D01*
X121396086Y-118995000D01*
X121427609Y-118932645D01*
X121446905Y-118915925D01*
X121516270Y-118867355D01*
X121603901Y-118805995D01*
X121770995Y-118638901D01*
X121906535Y-118445330D01*
X122006403Y-118231163D01*
X122067563Y-118002908D01*
X122088159Y-117767500D01*
X122067563Y-117532092D01*
X122006403Y-117303837D01*
X121906535Y-117089671D01*
X121856121Y-117017671D01*
X121770994Y-116896097D01*
X121603902Y-116729006D01*
X121603895Y-116729001D01*
X121410334Y-116593467D01*
X121410330Y-116593465D01*
X121410328Y-116593464D01*
X121196163Y-116493597D01*
X121196159Y-116493596D01*
X121196155Y-116493594D01*
X120967913Y-116432438D01*
X120967903Y-116432436D01*
X120732501Y-116411841D01*
X120732499Y-116411841D01*
X120497096Y-116432436D01*
X120497086Y-116432438D01*
X120268844Y-116493594D01*
X120268835Y-116493598D01*
X120054671Y-116593464D01*
X120054669Y-116593465D01*
X119861097Y-116729005D01*
X119694005Y-116896097D01*
X119558465Y-117089669D01*
X119558464Y-117089671D01*
X119458598Y-117303835D01*
X119458594Y-117303844D01*
X119397438Y-117532086D01*
X119397436Y-117532096D01*
X119376841Y-117767499D01*
X119376841Y-117767500D01*
X119397436Y-118002903D01*
X119397438Y-118002913D01*
X119458594Y-118231155D01*
X119458596Y-118231159D01*
X119458597Y-118231163D01*
X119467116Y-118249431D01*
X119558465Y-118445330D01*
X119558467Y-118445334D01*
X119625579Y-118541179D01*
X119694001Y-118638896D01*
X119694006Y-118638902D01*
X119861097Y-118805993D01*
X119861103Y-118805998D01*
X120018095Y-118915925D01*
X120061720Y-118970502D01*
X120068914Y-119040000D01*
X120037391Y-119102355D01*
X120018095Y-119119075D01*
X119861097Y-119229005D01*
X119694005Y-119396097D01*
X119584075Y-119553095D01*
X119529498Y-119596720D01*
X119460000Y-119603914D01*
X119397645Y-119572391D01*
X119380925Y-119553095D01*
X119270994Y-119396097D01*
X119103902Y-119229006D01*
X119103895Y-119229001D01*
X118910334Y-119093467D01*
X118910330Y-119093465D01*
X118910328Y-119093464D01*
X118696163Y-118993597D01*
X118696159Y-118993596D01*
X118696155Y-118993594D01*
X118467913Y-118932438D01*
X118467903Y-118932436D01*
X118232501Y-118911841D01*
X118232499Y-118911841D01*
X117997096Y-118932436D01*
X117997086Y-118932438D01*
X117768844Y-118993594D01*
X117768835Y-118993598D01*
X117554671Y-119093464D01*
X117554669Y-119093465D01*
X117361097Y-119229005D01*
X117194005Y-119396097D01*
X117084075Y-119553095D01*
X117029498Y-119596720D01*
X116960000Y-119603914D01*
X116897645Y-119572391D01*
X116880925Y-119553095D01*
X116770994Y-119396097D01*
X116603902Y-119229006D01*
X116603895Y-119229001D01*
X116410334Y-119093467D01*
X116410330Y-119093465D01*
X116410328Y-119093464D01*
X116196163Y-118993597D01*
X116196159Y-118993596D01*
X116196155Y-118993594D01*
X115967913Y-118932438D01*
X115967903Y-118932436D01*
X115732501Y-118911841D01*
X115732499Y-118911841D01*
X115497096Y-118932436D01*
X115497086Y-118932438D01*
X115268844Y-118993594D01*
X115268834Y-118993598D01*
X115220509Y-119016132D01*
X115151431Y-119026623D01*
X115087648Y-118998102D01*
X115049409Y-118939625D01*
X115044255Y-118897671D01*
X115048735Y-118806485D01*
X115049329Y-118800442D01*
X115095942Y-118486180D01*
X115097124Y-118480232D01*
X115174320Y-118172035D01*
X115176084Y-118166225D01*
X115283108Y-117867105D01*
X115285437Y-117861481D01*
X115329886Y-117767500D01*
X115421270Y-117574281D01*
X115424126Y-117568938D01*
X115587461Y-117296425D01*
X115590823Y-117291393D01*
X115780083Y-117036202D01*
X115783935Y-117031509D01*
X115997961Y-116795364D01*
X116000008Y-116793213D01*
X116053053Y-116740168D01*
X116053052Y-116740168D01*
X118997138Y-113796084D01*
X119273038Y-113541040D01*
X119276726Y-113537890D01*
X119569893Y-113306773D01*
X119573797Y-113303936D01*
X119884208Y-113096524D01*
X119888342Y-113093992D01*
X119974692Y-113045633D01*
X120214041Y-112911589D01*
X120218350Y-112909393D01*
X120557359Y-112753106D01*
X120561847Y-112751247D01*
X120912076Y-112622039D01*
X120916681Y-112620543D01*
X121275973Y-112519210D01*
X121280685Y-112518079D01*
X121646818Y-112445250D01*
X121651604Y-112444492D01*
X122022350Y-112400610D01*
X122027133Y-112400234D01*
X122402138Y-112385500D01*
X122402596Y-112385500D01*
X122478545Y-112385500D01*
X133405812Y-112385500D01*
X133472851Y-112405185D01*
X133507387Y-112438377D01*
X133619954Y-112599141D01*
X133780858Y-112760045D01*
X133780861Y-112760047D01*
X133967266Y-112890568D01*
X134173504Y-112986739D01*
X134393308Y-113045635D01*
X134555230Y-113059801D01*
X134619998Y-113065468D01*
X134620000Y-113065468D01*
X134620002Y-113065468D01*
X134676673Y-113060509D01*
X134846692Y-113045635D01*
X135066496Y-112986739D01*
X135272734Y-112890568D01*
X135459139Y-112760047D01*
X135620047Y-112599139D01*
X135750568Y-112412734D01*
X135846739Y-112206496D01*
X135905635Y-111986692D01*
X135925468Y-111760001D01*
X146014532Y-111760001D01*
X146034364Y-111986686D01*
X146034366Y-111986697D01*
X146093258Y-112206488D01*
X146093261Y-112206497D01*
X146189431Y-112412732D01*
X146189432Y-112412734D01*
X146319954Y-112599141D01*
X146480858Y-112760045D01*
X146480861Y-112760047D01*
X146667266Y-112890568D01*
X146873504Y-112986739D01*
X147093308Y-113045635D01*
X147255230Y-113059801D01*
X147319998Y-113065468D01*
X147320000Y-113065468D01*
X147320002Y-113065468D01*
X147376673Y-113060509D01*
X147546692Y-113045635D01*
X147766496Y-112986739D01*
X147972734Y-112890568D01*
X148159139Y-112760047D01*
X148320047Y-112599139D01*
X148450568Y-112412734D01*
X148546739Y-112206496D01*
X148605635Y-111986692D01*
X148625468Y-111760000D01*
X148605635Y-111533308D01*
X148546739Y-111313504D01*
X148450568Y-111107266D01*
X148320047Y-110920861D01*
X148320045Y-110920858D01*
X148159141Y-110759954D01*
X147972734Y-110629432D01*
X147972732Y-110629431D01*
X147766497Y-110533261D01*
X147766488Y-110533258D01*
X147546697Y-110474366D01*
X147546693Y-110474365D01*
X147546692Y-110474365D01*
X147546691Y-110474364D01*
X147546686Y-110474364D01*
X147320002Y-110454532D01*
X147319998Y-110454532D01*
X147093313Y-110474364D01*
X147093302Y-110474366D01*
X146873511Y-110533258D01*
X146873502Y-110533261D01*
X146667267Y-110629431D01*
X146667265Y-110629432D01*
X146480858Y-110759954D01*
X146319954Y-110920858D01*
X146189432Y-111107265D01*
X146189431Y-111107267D01*
X146093261Y-111313502D01*
X146093258Y-111313511D01*
X146034366Y-111533302D01*
X146034364Y-111533313D01*
X146014532Y-111759998D01*
X146014532Y-111760001D01*
X135925468Y-111760001D01*
X135925468Y-111760000D01*
X135905635Y-111533308D01*
X135846739Y-111313504D01*
X135750568Y-111107266D01*
X135620047Y-110920861D01*
X135620045Y-110920858D01*
X135459141Y-110759954D01*
X135272734Y-110629432D01*
X135272732Y-110629431D01*
X135066497Y-110533261D01*
X135066488Y-110533258D01*
X134846697Y-110474366D01*
X134846693Y-110474365D01*
X134846692Y-110474365D01*
X134846691Y-110474364D01*
X134846686Y-110474364D01*
X134620002Y-110454532D01*
X134619998Y-110454532D01*
X134393313Y-110474364D01*
X134393302Y-110474366D01*
X134173511Y-110533258D01*
X134173502Y-110533261D01*
X133967267Y-110629431D01*
X133967265Y-110629432D01*
X133780858Y-110759954D01*
X133619954Y-110920858D01*
X133507387Y-111081623D01*
X133452811Y-111125248D01*
X133405812Y-111134500D01*
X122453974Y-111134500D01*
X122453913Y-111134482D01*
X122402594Y-111134482D01*
X122185909Y-111134482D01*
X121753637Y-111165399D01*
X121753638Y-111165399D01*
X121511261Y-111200249D01*
X121324681Y-111227076D01*
X121308137Y-111230674D01*
X121232605Y-111247105D01*
X121162913Y-111242121D01*
X121106980Y-111200249D01*
X121082563Y-111134785D01*
X121097415Y-111066512D01*
X121118562Y-111038262D01*
X124206825Y-107950000D01*
X140064540Y-107950000D01*
X140084326Y-108138256D01*
X140084327Y-108138259D01*
X140142818Y-108318277D01*
X140142821Y-108318284D01*
X140237467Y-108482216D01*
X140359261Y-108617482D01*
X140364129Y-108622888D01*
X140517265Y-108734148D01*
X140517270Y-108734151D01*
X140690192Y-108811142D01*
X140690197Y-108811144D01*
X140875354Y-108850500D01*
X140875355Y-108850500D01*
X141064644Y-108850500D01*
X141064646Y-108850500D01*
X141249803Y-108811144D01*
X141307184Y-108785596D01*
X141322626Y-108778721D01*
X141373062Y-108768000D01*
X151330055Y-108768000D01*
X151416031Y-108768000D01*
X151816312Y-108785478D01*
X151821672Y-108785947D01*
X152216229Y-108837895D01*
X152221538Y-108838831D01*
X152610055Y-108924965D01*
X152615277Y-108926365D01*
X152994794Y-109046028D01*
X152999879Y-109047879D01*
X153073326Y-109078301D01*
X153367542Y-109200170D01*
X153372412Y-109202441D01*
X153725403Y-109386197D01*
X153730081Y-109388899D01*
X154065706Y-109602715D01*
X154070134Y-109605816D01*
X154335886Y-109809734D01*
X154385836Y-109848062D01*
X154389981Y-109851540D01*
X154486681Y-109940148D01*
X154685372Y-110122214D01*
X154685372Y-110122213D01*
X154685543Y-110122370D01*
X154703990Y-110140817D01*
X154722514Y-110159341D01*
X156145603Y-111582429D01*
X156179088Y-111643752D01*
X156181450Y-111680916D01*
X156174532Y-111759996D01*
X156174532Y-111760001D01*
X156194364Y-111986686D01*
X156194366Y-111986697D01*
X156253258Y-112206488D01*
X156253261Y-112206497D01*
X156349431Y-112412732D01*
X156349432Y-112412734D01*
X156479954Y-112599141D01*
X156640858Y-112760045D01*
X156640861Y-112760047D01*
X156827266Y-112890568D01*
X157033504Y-112986739D01*
X157253308Y-113045635D01*
X157415230Y-113059801D01*
X157479998Y-113065468D01*
X157480000Y-113065468D01*
X157480002Y-113065468D01*
X157536673Y-113060509D01*
X157706692Y-113045635D01*
X157926496Y-112986739D01*
X158132734Y-112890568D01*
X158319139Y-112760047D01*
X158480047Y-112599139D01*
X158610568Y-112412734D01*
X158706739Y-112206496D01*
X158765635Y-111986692D01*
X158785468Y-111760000D01*
X158765635Y-111533308D01*
X158706739Y-111313504D01*
X158610568Y-111107266D01*
X158480047Y-110920861D01*
X158480045Y-110920858D01*
X158319141Y-110759954D01*
X158132734Y-110629432D01*
X158132732Y-110629431D01*
X157926497Y-110533261D01*
X157926488Y-110533258D01*
X157706697Y-110474366D01*
X157706693Y-110474365D01*
X157706692Y-110474365D01*
X157706691Y-110474364D01*
X157706686Y-110474364D01*
X157480002Y-110454532D01*
X157479997Y-110454532D01*
X157400916Y-110461450D01*
X157332416Y-110447683D01*
X157302429Y-110425603D01*
X155910068Y-109033242D01*
X155910066Y-109033239D01*
X155808649Y-108931822D01*
X155808351Y-108931540D01*
X155684120Y-108807308D01*
X155346210Y-108514508D01*
X155346210Y-108514507D01*
X154988262Y-108246552D01*
X154988263Y-108246553D01*
X154612124Y-108004824D01*
X154219696Y-107790541D01*
X153812988Y-107604803D01*
X153812989Y-107604803D01*
X153812986Y-107604802D01*
X153394058Y-107448549D01*
X152965050Y-107322579D01*
X152965047Y-107322578D01*
X152528151Y-107227535D01*
X152085585Y-107163901D01*
X151639602Y-107132001D01*
X151461975Y-107132000D01*
X151461974Y-107132000D01*
X151416041Y-107132000D01*
X151330066Y-107131999D01*
X151330065Y-107131999D01*
X151327042Y-107131999D01*
X151327023Y-107132000D01*
X141373062Y-107132000D01*
X141322626Y-107121279D01*
X141249806Y-107088857D01*
X141249802Y-107088855D01*
X141104001Y-107057865D01*
X141064646Y-107049500D01*
X140875354Y-107049500D01*
X140842897Y-107056398D01*
X140690197Y-107088855D01*
X140690192Y-107088857D01*
X140517270Y-107165848D01*
X140517265Y-107165851D01*
X140364129Y-107277111D01*
X140237466Y-107417785D01*
X140142821Y-107581715D01*
X140142818Y-107581722D01*
X140091939Y-107738313D01*
X140084326Y-107761744D01*
X140064540Y-107950000D01*
X124206825Y-107950000D01*
X128016825Y-104140001D01*
X133314532Y-104140001D01*
X133334364Y-104366686D01*
X133334366Y-104366697D01*
X133393258Y-104586488D01*
X133393261Y-104586497D01*
X133489431Y-104792732D01*
X133489432Y-104792734D01*
X133619954Y-104979141D01*
X133780858Y-105140045D01*
X133780861Y-105140047D01*
X133967266Y-105270568D01*
X134173504Y-105366739D01*
X134393308Y-105425635D01*
X134555230Y-105439801D01*
X134619998Y-105445468D01*
X134620000Y-105445468D01*
X134620002Y-105445468D01*
X134676673Y-105440509D01*
X134846692Y-105425635D01*
X135066496Y-105366739D01*
X135272734Y-105270568D01*
X135459139Y-105140047D01*
X135620047Y-104979139D01*
X135750568Y-104792734D01*
X135846739Y-104586496D01*
X135905635Y-104366692D01*
X135925468Y-104140000D01*
X135922995Y-104111739D01*
X135914582Y-104015570D01*
X135905635Y-103913308D01*
X135899389Y-103889999D01*
X146041127Y-103889999D01*
X146041128Y-103890000D01*
X147004314Y-103890000D01*
X146992359Y-103901955D01*
X146934835Y-104014852D01*
X146915014Y-104140000D01*
X146934835Y-104265148D01*
X146992359Y-104378045D01*
X147004314Y-104390000D01*
X146041128Y-104390000D01*
X146093730Y-104586317D01*
X146093734Y-104586326D01*
X146189865Y-104792482D01*
X146320342Y-104978820D01*
X146481179Y-105139657D01*
X146667517Y-105270134D01*
X146873673Y-105366265D01*
X146873682Y-105366269D01*
X147069999Y-105418872D01*
X147070000Y-105418871D01*
X147070000Y-104455686D01*
X147081955Y-104467641D01*
X147194852Y-104525165D01*
X147288519Y-104540000D01*
X147351481Y-104540000D01*
X147445148Y-104525165D01*
X147558045Y-104467641D01*
X147570000Y-104455686D01*
X147570000Y-105418872D01*
X147766317Y-105366269D01*
X147766326Y-105366265D01*
X147972482Y-105270134D01*
X148158820Y-105139657D01*
X148319657Y-104978820D01*
X148450134Y-104792482D01*
X148546265Y-104586326D01*
X148546269Y-104586317D01*
X148598872Y-104390000D01*
X147635686Y-104390000D01*
X147647641Y-104378045D01*
X147705165Y-104265148D01*
X147724986Y-104140000D01*
X147705165Y-104014852D01*
X147647641Y-103901955D01*
X147635686Y-103890000D01*
X148598872Y-103890000D01*
X148598872Y-103889999D01*
X148546269Y-103693682D01*
X148546265Y-103693673D01*
X148450134Y-103487517D01*
X148319657Y-103301179D01*
X148158820Y-103140342D01*
X147972482Y-103009865D01*
X147766328Y-102913734D01*
X147570000Y-102861127D01*
X147570000Y-103824314D01*
X147558045Y-103812359D01*
X147445148Y-103754835D01*
X147351481Y-103740000D01*
X147288519Y-103740000D01*
X147194852Y-103754835D01*
X147081955Y-103812359D01*
X147070000Y-103824314D01*
X147070000Y-102861127D01*
X146873671Y-102913734D01*
X146667517Y-103009865D01*
X146481179Y-103140342D01*
X146320342Y-103301179D01*
X146189865Y-103487517D01*
X146093734Y-103693673D01*
X146093730Y-103693682D01*
X146041127Y-103889999D01*
X135899389Y-103889999D01*
X135846739Y-103693504D01*
X135750568Y-103487266D01*
X135620047Y-103300861D01*
X135620045Y-103300858D01*
X135459141Y-103139954D01*
X135272734Y-103009432D01*
X135272732Y-103009431D01*
X135066497Y-102913261D01*
X135066488Y-102913258D01*
X134846697Y-102854366D01*
X134846693Y-102854365D01*
X134846692Y-102854365D01*
X134846691Y-102854364D01*
X134846686Y-102854364D01*
X134620002Y-102834532D01*
X134619998Y-102834532D01*
X134393313Y-102854364D01*
X134393302Y-102854366D01*
X134173511Y-102913258D01*
X134173502Y-102913261D01*
X133967267Y-103009431D01*
X133967265Y-103009432D01*
X133780858Y-103139954D01*
X133619954Y-103300858D01*
X133489432Y-103487265D01*
X133489431Y-103487267D01*
X133393261Y-103693502D01*
X133393258Y-103693511D01*
X133334366Y-103913302D01*
X133334364Y-103913313D01*
X133314532Y-104139998D01*
X133314532Y-104140001D01*
X128016825Y-104140001D01*
X129101000Y-103055826D01*
X129101000Y-103055827D01*
X129396403Y-102785145D01*
X129400502Y-102781704D01*
X129716261Y-102539420D01*
X129720646Y-102536349D01*
X130056303Y-102322518D01*
X130060947Y-102319836D01*
X130413961Y-102136073D01*
X130418842Y-102133797D01*
X130786519Y-101981505D01*
X130791555Y-101979672D01*
X131171120Y-101859999D01*
X131176316Y-101858608D01*
X131564857Y-101772474D01*
X131570144Y-101771542D01*
X131964686Y-101719604D01*
X131970073Y-101719132D01*
X132232270Y-101707686D01*
X132371396Y-101701614D01*
X132456317Y-101701615D01*
X132456322Y-101701614D01*
X164246526Y-101701614D01*
X164332501Y-101701614D01*
X164378439Y-101701614D01*
X164379936Y-101701614D01*
X164380433Y-101701600D01*
X164490759Y-101701600D01*
X164490759Y-101701599D01*
X164805275Y-101666162D01*
X165113849Y-101595732D01*
X165412597Y-101491196D01*
X165697762Y-101353868D01*
X165965759Y-101185476D01*
X166213216Y-100988136D01*
X166293779Y-100907573D01*
X166355099Y-100874090D01*
X166424791Y-100879074D01*
G37*
%TD.AperFunction*%
%TA.AperFunction,Conductor*%
G36*
X165438858Y-90152320D02*
G01*
X165492913Y-90196590D01*
X165514452Y-90263057D01*
X165514500Y-90266502D01*
X165514500Y-98881167D01*
X165514309Y-98886035D01*
X165500711Y-99058787D01*
X165497667Y-99078004D01*
X165458925Y-99239373D01*
X165452912Y-99257879D01*
X165389399Y-99411210D01*
X165380565Y-99428546D01*
X165293855Y-99570043D01*
X165282418Y-99585785D01*
X165174634Y-99711982D01*
X165160876Y-99725740D01*
X165034680Y-99833522D01*
X165018937Y-99844960D01*
X164877434Y-99931672D01*
X164860098Y-99940505D01*
X164706776Y-100004013D01*
X164688270Y-100010026D01*
X164526895Y-100048769D01*
X164507677Y-100051813D01*
X164370303Y-100062624D01*
X164334748Y-100065423D01*
X164329885Y-100065614D01*
X158601070Y-100065614D01*
X158534031Y-100045929D01*
X158488276Y-99993125D01*
X158478332Y-99923967D01*
X158499495Y-99870490D01*
X158610134Y-99712482D01*
X158706265Y-99506326D01*
X158706269Y-99506317D01*
X158758872Y-99310000D01*
X157795686Y-99310000D01*
X157807641Y-99298045D01*
X157865165Y-99185148D01*
X157884986Y-99060000D01*
X157865165Y-98934852D01*
X157807641Y-98821955D01*
X157795686Y-98810000D01*
X158758872Y-98810000D01*
X158758872Y-98809999D01*
X158706269Y-98613682D01*
X158706265Y-98613673D01*
X158610134Y-98407517D01*
X158479657Y-98221179D01*
X158318820Y-98060342D01*
X158132482Y-97929865D01*
X157926326Y-97833734D01*
X157926318Y-97833731D01*
X157912191Y-97829945D01*
X157852532Y-97793577D01*
X157822005Y-97730729D01*
X157830303Y-97661354D01*
X157856603Y-97622496D01*
X165203392Y-90275708D01*
X165203398Y-90275704D01*
X165213602Y-90265499D01*
X165213604Y-90265499D01*
X165241646Y-90237455D01*
X165274397Y-90204706D01*
X165295210Y-90185633D01*
X165306726Y-90175080D01*
X165369450Y-90144302D01*
X165438858Y-90152320D01*
G37*
%TD.AperFunction*%
%TA.AperFunction,Conductor*%
G36*
X179012539Y-86380185D02*
G01*
X179058294Y-86432989D01*
X179069500Y-86484500D01*
X179069500Y-124335500D01*
X179049815Y-124402539D01*
X178997011Y-124448294D01*
X178945500Y-124459500D01*
X101724500Y-124459500D01*
X101657461Y-124439815D01*
X101611706Y-124387011D01*
X101600500Y-124335500D01*
X101600500Y-122567163D01*
X104503228Y-122567163D01*
X104533268Y-122763264D01*
X104533271Y-122763277D01*
X104602173Y-122949315D01*
X104602177Y-122949324D01*
X104707116Y-123117684D01*
X104707121Y-123117691D01*
X104843806Y-123261483D01*
X104843809Y-123261486D01*
X105006646Y-123374824D01*
X105188965Y-123453063D01*
X105383301Y-123493000D01*
X105531974Y-123493000D01*
X105679880Y-123477959D01*
X105751978Y-123455338D01*
X105869178Y-123418567D01*
X106042646Y-123322284D01*
X106193182Y-123193053D01*
X106314622Y-123036166D01*
X106401995Y-122858044D01*
X106451724Y-122665980D01*
X106461772Y-122467837D01*
X106431730Y-122271727D01*
X106362825Y-122085680D01*
X106348901Y-122063341D01*
X106257883Y-121917315D01*
X106257878Y-121917308D01*
X106121193Y-121773516D01*
X106121192Y-121773515D01*
X106107478Y-121763970D01*
X105998481Y-121688105D01*
X105958353Y-121660175D01*
X105776035Y-121581937D01*
X105581699Y-121542000D01*
X105433027Y-121542000D01*
X105433026Y-121542000D01*
X105285119Y-121557040D01*
X105095829Y-121616430D01*
X105095820Y-121616434D01*
X104922352Y-121712717D01*
X104922351Y-121712717D01*
X104771819Y-121841945D01*
X104771817Y-121841946D01*
X104650379Y-121998831D01*
X104650377Y-121998835D01*
X104563003Y-122176959D01*
X104513277Y-122369011D01*
X104513276Y-122369017D01*
X104503228Y-122567162D01*
X104503228Y-122567163D01*
X101600500Y-122567163D01*
X101600500Y-117767500D01*
X106876841Y-117767500D01*
X106897436Y-118002903D01*
X106897438Y-118002913D01*
X106958594Y-118231155D01*
X106958596Y-118231159D01*
X106958597Y-118231163D01*
X106967116Y-118249431D01*
X107058465Y-118445330D01*
X107058467Y-118445334D01*
X107125579Y-118541179D01*
X107194005Y-118638901D01*
X107282369Y-118727265D01*
X107286797Y-118731693D01*
X107320281Y-118793017D01*
X107315297Y-118862708D01*
X107273425Y-118918641D01*
X107242448Y-118935556D01*
X107140171Y-118973702D01*
X107140164Y-118973706D01*
X107024955Y-119059952D01*
X107024952Y-119059955D01*
X106938706Y-119175164D01*
X106938702Y-119175171D01*
X106888408Y-119310017D01*
X106882001Y-119369616D01*
X106882000Y-119369635D01*
X106882000Y-121165370D01*
X106882001Y-121165376D01*
X106888408Y-121224983D01*
X106938702Y-121359828D01*
X106938706Y-121359835D01*
X107024952Y-121475044D01*
X107024955Y-121475047D01*
X107140164Y-121561293D01*
X107140171Y-121561297D01*
X107275017Y-121611591D01*
X107275016Y-121611591D01*
X107281944Y-121612335D01*
X107334627Y-121618000D01*
X109130372Y-121617999D01*
X109189983Y-121611591D01*
X109324831Y-121561296D01*
X109328493Y-121558554D01*
X109393951Y-121534134D01*
X109462226Y-121548980D01*
X109490491Y-121570137D01*
X109511537Y-121591185D01*
X109511539Y-121591186D01*
X109514053Y-121593700D01*
X109514444Y-121594047D01*
X109522957Y-121602561D01*
X109541062Y-121620667D01*
X109727770Y-121763944D01*
X109862863Y-121841946D01*
X109931583Y-121881624D01*
X110149012Y-121971694D01*
X110376337Y-122032614D01*
X110609670Y-122063340D01*
X110640063Y-122063340D01*
X110640102Y-122063344D01*
X110648344Y-122063344D01*
X110727342Y-122063344D01*
X110727343Y-122063344D01*
X110803293Y-122063346D01*
X110803297Y-122063344D01*
X110807023Y-122063345D01*
X110807054Y-122063344D01*
X113157945Y-122063344D01*
X113157975Y-122063345D01*
X113161702Y-122063345D01*
X113161706Y-122063346D01*
X113186260Y-122063345D01*
X113186367Y-122063376D01*
X113237655Y-122063374D01*
X113237655Y-122063375D01*
X113355331Y-122063371D01*
X113588667Y-122032644D01*
X113815997Y-121971724D01*
X114033430Y-121881652D01*
X114237246Y-121763970D01*
X114423958Y-121620691D01*
X114453461Y-121591186D01*
X114453463Y-121591185D01*
X114470093Y-121574552D01*
X114470171Y-121574510D01*
X114507182Y-121537497D01*
X114590388Y-121454285D01*
X114686778Y-121328659D01*
X114743204Y-121287454D01*
X114812950Y-121283297D01*
X114855533Y-121304504D01*
X114856664Y-121302890D01*
X115054665Y-121441532D01*
X115054667Y-121441533D01*
X115054670Y-121441535D01*
X115268837Y-121541403D01*
X115268843Y-121541404D01*
X115268844Y-121541405D01*
X115271065Y-121542000D01*
X115497092Y-121602563D01*
X115673534Y-121618000D01*
X115732499Y-121623159D01*
X115732499Y-121623158D01*
X115732500Y-121623159D01*
X115857735Y-121612201D01*
X115926232Y-121625967D01*
X115956222Y-121648048D01*
X116581318Y-122273145D01*
X116581331Y-122273169D01*
X116615331Y-122307168D01*
X116615331Y-122307169D01*
X116776664Y-122468501D01*
X116950157Y-122616678D01*
X117123648Y-122764854D01*
X117123651Y-122764856D01*
X117492819Y-123033072D01*
X117492824Y-123033075D01*
X117865557Y-123261486D01*
X117881894Y-123271497D01*
X118238237Y-123453062D01*
X118288476Y-123478660D01*
X118710063Y-123653286D01*
X119144045Y-123794294D01*
X119144044Y-123794294D01*
X119587753Y-123900817D01*
X120038458Y-123972201D01*
X120493361Y-124008000D01*
X120493363Y-124008000D01*
X156479358Y-124008000D01*
X156479820Y-124007987D01*
X156655464Y-124007987D01*
X157101449Y-123976090D01*
X157544014Y-123912458D01*
X157762464Y-123864937D01*
X157980915Y-123817417D01*
X158409909Y-123691454D01*
X158409920Y-123691449D01*
X158409923Y-123691449D01*
X158828852Y-123535198D01*
X158828859Y-123535195D01*
X159235564Y-123349461D01*
X159235564Y-123349460D01*
X159235567Y-123349459D01*
X159627988Y-123135183D01*
X159627989Y-123135183D01*
X160004139Y-122893448D01*
X160362074Y-122625504D01*
X160658079Y-122369017D01*
X160699988Y-122332703D01*
X160824162Y-122208529D01*
X160824174Y-122208518D01*
X160825587Y-122207104D01*
X160825590Y-122207103D01*
X160841488Y-122191204D01*
X160858069Y-122174623D01*
X160858070Y-122174624D01*
X160918864Y-122113831D01*
X160918864Y-122113830D01*
X160925919Y-122106776D01*
X160925936Y-122106755D01*
X163902692Y-119129999D01*
X165091127Y-119129999D01*
X165091128Y-119130000D01*
X166054314Y-119130000D01*
X166042359Y-119141955D01*
X165984835Y-119254852D01*
X165965014Y-119380000D01*
X165984835Y-119505148D01*
X166042359Y-119618045D01*
X166054314Y-119630000D01*
X165091128Y-119630000D01*
X165143730Y-119826317D01*
X165143734Y-119826326D01*
X165239865Y-120032482D01*
X165370342Y-120218820D01*
X165531179Y-120379657D01*
X165717517Y-120510134D01*
X165923673Y-120606265D01*
X165923682Y-120606269D01*
X166119999Y-120658872D01*
X166120000Y-120658871D01*
X166120000Y-119695686D01*
X166131955Y-119707641D01*
X166244852Y-119765165D01*
X166338519Y-119780000D01*
X166401481Y-119780000D01*
X166495148Y-119765165D01*
X166608045Y-119707641D01*
X166620000Y-119695686D01*
X166620000Y-120658872D01*
X166816317Y-120606269D01*
X166816326Y-120606265D01*
X167022482Y-120510134D01*
X167208820Y-120379657D01*
X167369657Y-120218820D01*
X167500134Y-120032482D01*
X167596265Y-119826326D01*
X167596269Y-119826317D01*
X167648872Y-119630000D01*
X166685686Y-119630000D01*
X166697641Y-119618045D01*
X166755165Y-119505148D01*
X166774986Y-119380000D01*
X166755165Y-119254852D01*
X166697641Y-119141955D01*
X166685686Y-119130000D01*
X167648872Y-119130000D01*
X167648872Y-119129999D01*
X167616148Y-119007870D01*
X175179500Y-119007870D01*
X175179501Y-119007876D01*
X175185908Y-119067483D01*
X175236202Y-119202328D01*
X175236206Y-119202335D01*
X175322452Y-119317544D01*
X175322455Y-119317547D01*
X175437664Y-119403793D01*
X175437671Y-119403797D01*
X175437674Y-119403798D01*
X175569598Y-119453002D01*
X175625531Y-119494873D01*
X175649949Y-119560337D01*
X175635098Y-119628610D01*
X175613947Y-119656865D01*
X175491886Y-119778926D01*
X175356400Y-119972420D01*
X175356399Y-119972422D01*
X175256570Y-120186507D01*
X175256567Y-120186513D01*
X175199364Y-120399999D01*
X175199364Y-120400000D01*
X176096314Y-120400000D01*
X176070507Y-120440156D01*
X176030000Y-120578111D01*
X176030000Y-120721889D01*
X176070507Y-120859844D01*
X176096314Y-120900000D01*
X175199364Y-120900000D01*
X175256567Y-121113486D01*
X175256570Y-121113492D01*
X175356399Y-121327578D01*
X175491894Y-121521082D01*
X175658917Y-121688105D01*
X175852421Y-121823600D01*
X176066507Y-121923429D01*
X176066516Y-121923433D01*
X176280000Y-121980634D01*
X176280000Y-121085501D01*
X176387685Y-121134680D01*
X176494237Y-121150000D01*
X176565763Y-121150000D01*
X176672315Y-121134680D01*
X176780000Y-121085501D01*
X176780000Y-121980633D01*
X176993483Y-121923433D01*
X176993492Y-121923429D01*
X177207578Y-121823600D01*
X177401082Y-121688105D01*
X177568105Y-121521082D01*
X177703600Y-121327578D01*
X177803429Y-121113492D01*
X177803432Y-121113486D01*
X177860636Y-120900000D01*
X176963686Y-120900000D01*
X176989493Y-120859844D01*
X177030000Y-120721889D01*
X177030000Y-120578111D01*
X176989493Y-120440156D01*
X176963686Y-120400000D01*
X177860636Y-120400000D01*
X177860635Y-120399999D01*
X177803432Y-120186513D01*
X177803429Y-120186507D01*
X177703600Y-119972422D01*
X177703599Y-119972420D01*
X177568113Y-119778926D01*
X177568108Y-119778920D01*
X177446053Y-119656865D01*
X177412568Y-119595542D01*
X177417552Y-119525850D01*
X177459424Y-119469917D01*
X177490400Y-119453002D01*
X177622331Y-119403796D01*
X177737546Y-119317546D01*
X177823796Y-119202331D01*
X177874091Y-119067483D01*
X177880500Y-119007873D01*
X177880499Y-117212128D01*
X177874091Y-117152517D01*
X177850650Y-117089669D01*
X177823797Y-117017671D01*
X177823793Y-117017664D01*
X177737547Y-116902455D01*
X177737544Y-116902452D01*
X177622335Y-116816206D01*
X177622328Y-116816202D01*
X177487482Y-116765908D01*
X177487483Y-116765908D01*
X177427883Y-116759501D01*
X177427881Y-116759500D01*
X177427873Y-116759500D01*
X177427864Y-116759500D01*
X175632129Y-116759500D01*
X175632123Y-116759501D01*
X175572516Y-116765908D01*
X175437671Y-116816202D01*
X175437664Y-116816206D01*
X175322455Y-116902452D01*
X175322452Y-116902455D01*
X175236206Y-117017664D01*
X175236202Y-117017671D01*
X175185908Y-117152517D01*
X175179501Y-117212116D01*
X175179501Y-117212123D01*
X175179500Y-117212135D01*
X175179500Y-119007870D01*
X167616148Y-119007870D01*
X167596269Y-118933682D01*
X167596265Y-118933673D01*
X167500134Y-118727517D01*
X167369657Y-118541179D01*
X167208820Y-118380342D01*
X167022482Y-118249865D01*
X166816328Y-118153734D01*
X166620000Y-118101127D01*
X166620000Y-119064314D01*
X166608045Y-119052359D01*
X166495148Y-118994835D01*
X166401481Y-118980000D01*
X166338519Y-118980000D01*
X166244852Y-118994835D01*
X166131955Y-119052359D01*
X166120000Y-119064314D01*
X166120000Y-118101127D01*
X165923671Y-118153734D01*
X165717517Y-118249865D01*
X165531179Y-118380342D01*
X165370342Y-118541179D01*
X165239865Y-118727517D01*
X165143734Y-118933673D01*
X165143730Y-118933682D01*
X165091127Y-119129999D01*
X163902692Y-119129999D01*
X171964020Y-111068672D01*
X171964026Y-111068668D01*
X171974230Y-111058463D01*
X171974232Y-111058463D01*
X172033957Y-110998736D01*
X172036131Y-110996666D01*
X172255519Y-110797821D01*
X172260192Y-110793986D01*
X172496756Y-110618535D01*
X172501807Y-110615160D01*
X172754440Y-110463735D01*
X172759769Y-110460887D01*
X173026039Y-110334947D01*
X173031627Y-110332632D01*
X173308964Y-110233399D01*
X173314743Y-110231646D01*
X173484453Y-110189135D01*
X173600446Y-110160081D01*
X173606417Y-110158893D01*
X173897735Y-110115679D01*
X173903794Y-110115082D01*
X174199073Y-110100575D01*
X174202116Y-110100500D01*
X175305286Y-110100500D01*
X175305865Y-110100483D01*
X175378443Y-110100486D01*
X175618148Y-110073484D01*
X175853322Y-110019813D01*
X176081008Y-109940146D01*
X176298342Y-109835488D01*
X176502590Y-109707152D01*
X176691185Y-109556754D01*
X176710298Y-109537641D01*
X176710307Y-109537633D01*
X176715674Y-109532265D01*
X176715677Y-109532264D01*
X176740139Y-109507802D01*
X176740194Y-109507771D01*
X176776482Y-109471482D01*
X176776483Y-109471483D01*
X176861768Y-109386197D01*
X177012167Y-109197601D01*
X177140503Y-108993350D01*
X177245163Y-108776015D01*
X177324830Y-108548327D01*
X177378502Y-108313151D01*
X177405504Y-108073444D01*
X177405500Y-107952832D01*
X177405500Y-107949995D01*
X177405500Y-105088175D01*
X177405500Y-105086467D01*
X177405494Y-105086263D01*
X177405495Y-104983440D01*
X177375958Y-104683535D01*
X177317168Y-104387970D01*
X177229690Y-104099590D01*
X177114367Y-103821174D01*
X176972310Y-103555402D01*
X176960505Y-103537734D01*
X176804898Y-103304850D01*
X176804891Y-103304840D01*
X176804886Y-103304833D01*
X176690358Y-103165280D01*
X176613704Y-103071877D01*
X176604399Y-103062573D01*
X176570911Y-103001251D01*
X176568548Y-102964085D01*
X176575468Y-102885000D01*
X176555635Y-102658308D01*
X176496739Y-102438504D01*
X176400568Y-102232266D01*
X176270047Y-102045861D01*
X176270045Y-102045858D01*
X176109141Y-101884954D01*
X175922734Y-101754432D01*
X175922728Y-101754429D01*
X175864725Y-101727382D01*
X175812285Y-101681210D01*
X175793133Y-101614017D01*
X175813348Y-101547135D01*
X175864725Y-101502618D01*
X175922734Y-101475568D01*
X176109139Y-101345047D01*
X176270047Y-101184139D01*
X176400568Y-100997734D01*
X176496739Y-100791496D01*
X176555635Y-100571692D01*
X176575468Y-100345000D01*
X176555635Y-100118308D01*
X176496739Y-99898504D01*
X176400568Y-99692266D01*
X176270047Y-99505861D01*
X176270045Y-99505858D01*
X176109141Y-99344954D01*
X175922734Y-99214432D01*
X175922728Y-99214429D01*
X175864725Y-99187382D01*
X175812285Y-99141210D01*
X175793133Y-99074017D01*
X175813348Y-99007135D01*
X175864725Y-98962618D01*
X175922734Y-98935568D01*
X176109139Y-98805047D01*
X176270047Y-98644139D01*
X176400568Y-98457734D01*
X176496739Y-98251496D01*
X176555635Y-98031692D01*
X176574673Y-97814091D01*
X176575468Y-97805001D01*
X176575468Y-97804998D01*
X176563798Y-97671608D01*
X176555635Y-97578308D01*
X176496739Y-97358504D01*
X176400568Y-97152266D01*
X176270047Y-96965861D01*
X176270045Y-96965858D01*
X176109141Y-96804954D01*
X175922734Y-96674432D01*
X175922728Y-96674429D01*
X175864725Y-96647382D01*
X175812285Y-96601210D01*
X175793133Y-96534017D01*
X175813348Y-96467135D01*
X175864725Y-96422618D01*
X175922734Y-96395568D01*
X176109139Y-96265047D01*
X176270047Y-96104139D01*
X176400568Y-95917734D01*
X176496739Y-95711496D01*
X176555635Y-95491692D01*
X176575468Y-95265000D01*
X176568549Y-95185924D01*
X176582315Y-95117427D01*
X176604395Y-95087439D01*
X176613713Y-95078122D01*
X176804891Y-94845170D01*
X176972315Y-94594601D01*
X177114373Y-94328828D01*
X177229696Y-94050411D01*
X177317174Y-93762031D01*
X177375965Y-93466464D01*
X177405501Y-93166559D01*
X177405500Y-93015881D01*
X177405500Y-92929906D01*
X177405500Y-90873547D01*
X177405501Y-90873543D01*
X177405500Y-90838939D01*
X177405510Y-90838904D01*
X177405508Y-90612038D01*
X177405508Y-90612034D01*
X177371095Y-90262658D01*
X177302603Y-89918336D01*
X177297054Y-89900045D01*
X177205039Y-89596720D01*
X177200691Y-89582387D01*
X177066342Y-89258043D01*
X176900849Y-88948430D01*
X176705806Y-88656529D01*
X176483091Y-88385151D01*
X176483090Y-88385150D01*
X176483086Y-88385145D01*
X176426837Y-88328897D01*
X176426833Y-88328892D01*
X176358970Y-88261030D01*
X176345205Y-88247265D01*
X176298177Y-88200236D01*
X176298174Y-88200234D01*
X176295955Y-88198015D01*
X176295804Y-88197878D01*
X176234842Y-88136916D01*
X176142165Y-88060858D01*
X175963470Y-87914206D01*
X175963469Y-87914205D01*
X175963465Y-87914202D01*
X175671564Y-87719159D01*
X175361952Y-87553666D01*
X175229577Y-87498834D01*
X175037605Y-87419316D01*
X174701663Y-87317407D01*
X174357346Y-87248916D01*
X174357351Y-87248916D01*
X174277208Y-87241022D01*
X174007964Y-87214502D01*
X174007961Y-87214501D01*
X174007968Y-87214501D01*
X173878366Y-87214500D01*
X173878362Y-87214500D01*
X173832431Y-87214500D01*
X173746456Y-87214499D01*
X173746455Y-87214499D01*
X173743432Y-87214499D01*
X173743413Y-87214500D01*
X168496230Y-87214500D01*
X168495780Y-87214511D01*
X168320185Y-87214511D01*
X168320184Y-87214511D01*
X168208688Y-87222484D01*
X167874199Y-87246406D01*
X167431629Y-87310035D01*
X167431628Y-87310035D01*
X167397743Y-87317407D01*
X166994733Y-87405075D01*
X166994731Y-87405075D01*
X166994729Y-87405076D01*
X166565719Y-87531042D01*
X166146788Y-87687294D01*
X165740075Y-87873031D01*
X165664687Y-87914196D01*
X165347643Y-88087315D01*
X165270462Y-88136916D01*
X164971504Y-88329043D01*
X164971505Y-88329042D01*
X164613555Y-88597001D01*
X164275645Y-88889801D01*
X164150052Y-89015396D01*
X158412865Y-94752582D01*
X158351542Y-94786067D01*
X158281850Y-94781083D01*
X158225917Y-94739211D01*
X158217797Y-94726901D01*
X158216037Y-94723854D01*
X158212533Y-94717784D01*
X158085871Y-94577112D01*
X158085870Y-94577111D01*
X157932734Y-94465851D01*
X157932729Y-94465848D01*
X157759807Y-94388857D01*
X157759802Y-94388855D01*
X157614001Y-94357865D01*
X157574646Y-94349500D01*
X157385354Y-94349500D01*
X157271148Y-94373774D01*
X157221004Y-94384433D01*
X157151337Y-94379116D01*
X157095604Y-94336978D01*
X157071499Y-94271398D01*
X157077294Y-94224822D01*
X157095674Y-94168256D01*
X157115460Y-93980000D01*
X157095674Y-93791744D01*
X157037179Y-93611716D01*
X156942533Y-93447784D01*
X156815871Y-93307112D01*
X156815870Y-93307111D01*
X156662734Y-93195851D01*
X156662729Y-93195848D01*
X156489807Y-93118857D01*
X156489802Y-93118855D01*
X156344001Y-93087865D01*
X156304646Y-93079500D01*
X156115354Y-93079500D01*
X156082897Y-93086398D01*
X155930197Y-93118855D01*
X155930193Y-93118857D01*
X155857374Y-93151279D01*
X155806938Y-93162000D01*
X145763969Y-93162000D01*
X145363703Y-93144521D01*
X145358313Y-93144049D01*
X144963788Y-93092107D01*
X144958459Y-93091167D01*
X144569948Y-93005035D01*
X144564721Y-93003634D01*
X144185204Y-92883971D01*
X144180119Y-92882120D01*
X143903399Y-92767499D01*
X143812466Y-92729833D01*
X143807577Y-92727553D01*
X143454582Y-92543795D01*
X143449918Y-92541102D01*
X143114294Y-92327284D01*
X143109867Y-92324185D01*
X142794155Y-92081932D01*
X142790010Y-92078453D01*
X142494437Y-91807610D01*
X142431500Y-91744673D01*
X142431488Y-91744662D01*
X141086578Y-90399752D01*
X141053093Y-90338429D01*
X141058077Y-90268737D01*
X141099949Y-90212804D01*
X141163451Y-90188543D01*
X141196692Y-90185635D01*
X141416496Y-90126739D01*
X141622734Y-90030568D01*
X141809139Y-89900047D01*
X141970047Y-89739139D01*
X142100568Y-89552734D01*
X142127618Y-89494724D01*
X142173790Y-89442285D01*
X142240983Y-89423133D01*
X142307865Y-89443348D01*
X142352381Y-89494724D01*
X142353495Y-89497112D01*
X142379429Y-89552728D01*
X142379432Y-89552734D01*
X142509954Y-89739141D01*
X142670858Y-89900045D01*
X142670861Y-89900047D01*
X142857266Y-90030568D01*
X143063504Y-90126739D01*
X143283308Y-90185635D01*
X143445230Y-90199801D01*
X143509998Y-90205468D01*
X143510000Y-90205468D01*
X143510002Y-90205468D01*
X143566673Y-90200509D01*
X143736692Y-90185635D01*
X143956496Y-90126739D01*
X144162734Y-90030568D01*
X144349139Y-89900047D01*
X144510047Y-89739139D01*
X144640568Y-89552734D01*
X144736739Y-89346496D01*
X144795635Y-89126692D01*
X144815468Y-88900000D01*
X144814575Y-88889798D01*
X144808669Y-88822282D01*
X144795635Y-88673308D01*
X144736739Y-88453504D01*
X144640568Y-88247266D01*
X144510047Y-88060861D01*
X144510045Y-88060858D01*
X144349141Y-87899954D01*
X144162734Y-87769432D01*
X144162732Y-87769431D01*
X143956497Y-87673261D01*
X143956488Y-87673258D01*
X143736697Y-87614366D01*
X143736693Y-87614365D01*
X143736692Y-87614365D01*
X143736691Y-87614364D01*
X143736686Y-87614364D01*
X143510002Y-87594532D01*
X143509998Y-87594532D01*
X143283313Y-87614364D01*
X143283302Y-87614366D01*
X143063511Y-87673258D01*
X143063502Y-87673261D01*
X142857267Y-87769431D01*
X142857265Y-87769432D01*
X142670858Y-87899954D01*
X142509954Y-88060858D01*
X142379432Y-88247265D01*
X142379431Y-88247267D01*
X142352382Y-88305275D01*
X142306209Y-88357714D01*
X142239016Y-88376866D01*
X142172135Y-88356650D01*
X142127618Y-88305275D01*
X142100568Y-88247267D01*
X142100567Y-88247265D01*
X142067637Y-88200236D01*
X141970047Y-88060861D01*
X141970045Y-88060858D01*
X141809141Y-87899954D01*
X141622734Y-87769432D01*
X141622732Y-87769431D01*
X141416497Y-87673261D01*
X141416488Y-87673258D01*
X141196697Y-87614366D01*
X141196693Y-87614365D01*
X141196692Y-87614365D01*
X141196691Y-87614364D01*
X141196686Y-87614364D01*
X140970002Y-87594532D01*
X140969998Y-87594532D01*
X140743313Y-87614364D01*
X140743302Y-87614366D01*
X140523511Y-87673258D01*
X140523502Y-87673261D01*
X140317267Y-87769431D01*
X140317265Y-87769432D01*
X140130858Y-87899954D01*
X139969954Y-88060858D01*
X139839432Y-88247265D01*
X139839431Y-88247267D01*
X139812382Y-88305275D01*
X139766209Y-88357714D01*
X139699016Y-88376866D01*
X139632135Y-88356650D01*
X139587618Y-88305275D01*
X139560568Y-88247267D01*
X139560567Y-88247265D01*
X139527637Y-88200236D01*
X139430047Y-88060861D01*
X139430045Y-88060858D01*
X139269141Y-87899954D01*
X139082734Y-87769432D01*
X139082732Y-87769431D01*
X138876497Y-87673261D01*
X138876488Y-87673258D01*
X138656697Y-87614366D01*
X138656693Y-87614365D01*
X138656692Y-87614365D01*
X138656691Y-87614364D01*
X138656686Y-87614364D01*
X138430002Y-87594532D01*
X138429998Y-87594532D01*
X138203313Y-87614364D01*
X138203302Y-87614366D01*
X137983511Y-87673258D01*
X137983502Y-87673261D01*
X137777267Y-87769431D01*
X137777265Y-87769432D01*
X137590858Y-87899954D01*
X137429954Y-88060858D01*
X137299432Y-88247265D01*
X137299431Y-88247267D01*
X137272382Y-88305275D01*
X137226209Y-88357714D01*
X137159016Y-88376866D01*
X137092135Y-88356650D01*
X137047618Y-88305275D01*
X137020568Y-88247267D01*
X137020567Y-88247265D01*
X136987637Y-88200236D01*
X136890047Y-88060861D01*
X136890045Y-88060858D01*
X136729141Y-87899954D01*
X136542734Y-87769432D01*
X136542732Y-87769431D01*
X136336497Y-87673261D01*
X136336488Y-87673258D01*
X136116697Y-87614366D01*
X136116693Y-87614365D01*
X136116692Y-87614365D01*
X136116691Y-87614364D01*
X136116686Y-87614364D01*
X135890002Y-87594532D01*
X135889998Y-87594532D01*
X135663313Y-87614364D01*
X135663302Y-87614366D01*
X135443511Y-87673258D01*
X135443502Y-87673261D01*
X135237267Y-87769431D01*
X135237265Y-87769432D01*
X135050858Y-87899954D01*
X134889954Y-88060858D01*
X134759432Y-88247265D01*
X134759431Y-88247267D01*
X134663261Y-88453502D01*
X134663258Y-88453511D01*
X134604366Y-88673302D01*
X134604364Y-88673313D01*
X134584532Y-88899998D01*
X134584532Y-88900001D01*
X134604364Y-89126686D01*
X134604366Y-89126697D01*
X134663258Y-89346488D01*
X134663261Y-89346497D01*
X134759431Y-89552732D01*
X134759432Y-89552734D01*
X134889954Y-89739141D01*
X135050858Y-89900045D01*
X135050861Y-89900047D01*
X135237266Y-90030568D01*
X135443504Y-90126739D01*
X135663308Y-90185635D01*
X135825230Y-90199801D01*
X135889998Y-90205468D01*
X135890000Y-90205468D01*
X135890002Y-90205468D01*
X135946673Y-90200509D01*
X136116692Y-90185635D01*
X136336496Y-90126739D01*
X136542734Y-90030568D01*
X136729139Y-89900047D01*
X136890047Y-89739139D01*
X137020568Y-89552734D01*
X137047618Y-89494724D01*
X137093790Y-89442285D01*
X137160983Y-89423133D01*
X137227865Y-89443348D01*
X137272381Y-89494724D01*
X137273495Y-89497112D01*
X137299429Y-89552728D01*
X137299432Y-89552734D01*
X137429954Y-89739141D01*
X137590858Y-89900045D01*
X137590861Y-89900047D01*
X137777266Y-90030568D01*
X137983504Y-90126739D01*
X138203308Y-90185635D01*
X138365230Y-90199801D01*
X138429998Y-90205468D01*
X138429999Y-90205468D01*
X138429999Y-90205467D01*
X138430000Y-90205468D01*
X138509082Y-90198548D01*
X138577579Y-90212314D01*
X138607569Y-90234395D01*
X141274664Y-92901490D01*
X141274675Y-92901502D01*
X141371444Y-92998271D01*
X141371719Y-92998530D01*
X141495878Y-93122690D01*
X141833789Y-93415491D01*
X141833789Y-93415492D01*
X142191737Y-93683447D01*
X142191736Y-93683446D01*
X142382422Y-93805993D01*
X142501652Y-93882618D01*
X142567874Y-93925176D01*
X142960302Y-94139459D01*
X143249208Y-94271398D01*
X143367013Y-94325198D01*
X143636891Y-94425858D01*
X143744110Y-94465849D01*
X143785941Y-94481451D01*
X144214949Y-94607421D01*
X144214951Y-94607421D01*
X144214953Y-94607422D01*
X144214952Y-94607422D01*
X144651848Y-94702465D01*
X145094414Y-94766099D01*
X145540397Y-94797999D01*
X145540398Y-94797999D01*
X145703583Y-94797999D01*
X145703591Y-94798000D01*
X145763957Y-94798000D01*
X145849933Y-94798001D01*
X145849938Y-94798000D01*
X155806938Y-94798000D01*
X155857374Y-94808721D01*
X155879343Y-94818502D01*
X155930197Y-94841144D01*
X156115354Y-94880500D01*
X156115355Y-94880500D01*
X156304644Y-94880500D01*
X156304646Y-94880500D01*
X156387946Y-94862794D01*
X156457612Y-94868110D01*
X156513346Y-94910247D01*
X156537451Y-94975827D01*
X156522274Y-95044028D01*
X156501407Y-95071765D01*
X156327382Y-95245791D01*
X156327376Y-95245795D01*
X156268033Y-95305139D01*
X156265072Y-95307913D01*
X156136879Y-95420336D01*
X156130438Y-95425278D01*
X155990367Y-95518870D01*
X155983336Y-95522929D01*
X155832266Y-95597427D01*
X155824766Y-95600534D01*
X155665243Y-95654683D01*
X155657401Y-95656785D01*
X155492186Y-95689646D01*
X155484137Y-95690706D01*
X155313841Y-95701866D01*
X155309786Y-95701999D01*
X155222986Y-95701999D01*
X155222966Y-95702000D01*
X144582548Y-95702000D01*
X144515509Y-95682315D01*
X144494871Y-95665685D01*
X144349139Y-95519953D01*
X144349138Y-95519952D01*
X144349137Y-95519951D01*
X144162734Y-95389432D01*
X144162732Y-95389431D01*
X143956497Y-95293261D01*
X143956488Y-95293258D01*
X143736697Y-95234366D01*
X143736693Y-95234365D01*
X143736692Y-95234365D01*
X143736691Y-95234364D01*
X143736686Y-95234364D01*
X143510002Y-95214532D01*
X143509998Y-95214532D01*
X143283313Y-95234364D01*
X143283302Y-95234366D01*
X143063511Y-95293258D01*
X143063502Y-95293261D01*
X142892758Y-95372882D01*
X142840353Y-95384500D01*
X141639647Y-95384500D01*
X141587242Y-95372882D01*
X141564879Y-95362454D01*
X141544794Y-95353087D01*
X141416497Y-95293261D01*
X141416488Y-95293258D01*
X141196697Y-95234366D01*
X141196693Y-95234365D01*
X141196692Y-95234365D01*
X141196691Y-95234364D01*
X141196686Y-95234364D01*
X140970002Y-95214532D01*
X140969998Y-95214532D01*
X140743313Y-95234364D01*
X140743302Y-95234366D01*
X140523511Y-95293258D01*
X140523502Y-95293261D01*
X140352758Y-95372882D01*
X140300353Y-95384500D01*
X139099647Y-95384500D01*
X139047242Y-95372882D01*
X139024879Y-95362454D01*
X139004794Y-95353087D01*
X138876497Y-95293261D01*
X138876488Y-95293258D01*
X138656697Y-95234366D01*
X138656693Y-95234365D01*
X138656692Y-95234365D01*
X138656691Y-95234364D01*
X138656686Y-95234364D01*
X138430002Y-95214532D01*
X138429998Y-95214532D01*
X138203313Y-95234364D01*
X138203302Y-95234366D01*
X137983511Y-95293258D01*
X137983502Y-95293261D01*
X137812758Y-95372882D01*
X137760353Y-95384500D01*
X137118267Y-95384500D01*
X137051228Y-95364815D01*
X137043956Y-95359766D01*
X136932335Y-95276206D01*
X136932328Y-95276202D01*
X136797482Y-95225908D01*
X136797483Y-95225908D01*
X136737883Y-95219501D01*
X136737881Y-95219500D01*
X136737873Y-95219500D01*
X136737864Y-95219500D01*
X135042129Y-95219500D01*
X135042123Y-95219501D01*
X134982516Y-95225908D01*
X134847671Y-95276202D01*
X134847664Y-95276206D01*
X134732455Y-95362452D01*
X134732452Y-95362455D01*
X134646206Y-95477664D01*
X134646202Y-95477671D01*
X134595908Y-95612517D01*
X134589501Y-95672116D01*
X134589500Y-95672135D01*
X134589500Y-95770500D01*
X134569815Y-95837539D01*
X134517011Y-95883294D01*
X134465500Y-95894500D01*
X133284366Y-95894500D01*
X133284119Y-95894507D01*
X133108648Y-95894507D01*
X132676380Y-95925421D01*
X132247422Y-95987094D01*
X131823960Y-96079212D01*
X131823958Y-96079212D01*
X131823956Y-96079213D01*
X131408139Y-96201306D01*
X131002092Y-96352753D01*
X131002085Y-96352756D01*
X130607887Y-96532779D01*
X130348475Y-96674429D01*
X130227524Y-96740473D01*
X130127191Y-96804953D01*
X129862953Y-96974768D01*
X129862954Y-96974767D01*
X129516011Y-97234486D01*
X129516012Y-97234486D01*
X129188499Y-97518278D01*
X129188495Y-97518282D01*
X129188495Y-97518281D01*
X123781956Y-102924820D01*
X123775850Y-102930174D01*
X123733718Y-102962500D01*
X123705684Y-102978684D01*
X123667943Y-102994315D01*
X123636675Y-103002692D01*
X123584002Y-103009624D01*
X123575906Y-103010155D01*
X123479509Y-103010158D01*
X123479502Y-103010159D01*
X123280326Y-103036388D01*
X123086270Y-103088392D01*
X122900672Y-103165276D01*
X122900660Y-103165282D01*
X122726688Y-103265734D01*
X122726681Y-103265739D01*
X122567307Y-103388043D01*
X122567300Y-103388049D01*
X122545857Y-103409494D01*
X122524424Y-103430930D01*
X116447583Y-109507771D01*
X110378392Y-115576962D01*
X110378390Y-115576963D01*
X110208321Y-115747029D01*
X109962629Y-116034698D01*
X109740266Y-116340755D01*
X109740267Y-116340755D01*
X109740264Y-116340759D01*
X109542599Y-116663320D01*
X109476436Y-116793172D01*
X109449833Y-116845384D01*
X109401858Y-116896180D01*
X109334037Y-116912975D01*
X109267902Y-116890437D01*
X109251667Y-116876771D01*
X109191098Y-116816202D01*
X109103901Y-116729005D01*
X109103897Y-116729002D01*
X109103896Y-116729001D01*
X108910334Y-116593467D01*
X108910330Y-116593465D01*
X108910328Y-116593464D01*
X108696163Y-116493597D01*
X108696159Y-116493596D01*
X108696155Y-116493594D01*
X108467913Y-116432438D01*
X108467903Y-116432436D01*
X108232501Y-116411841D01*
X108232499Y-116411841D01*
X107997096Y-116432436D01*
X107997086Y-116432438D01*
X107768844Y-116493594D01*
X107768835Y-116493598D01*
X107554671Y-116593464D01*
X107554669Y-116593465D01*
X107361097Y-116729005D01*
X107194005Y-116896097D01*
X107058465Y-117089669D01*
X107058464Y-117089671D01*
X106958598Y-117303835D01*
X106958594Y-117303844D01*
X106897438Y-117532086D01*
X106897436Y-117532096D01*
X106876841Y-117767499D01*
X106876841Y-117767500D01*
X101600500Y-117767500D01*
X101600500Y-92767500D01*
X106876841Y-92767500D01*
X106897436Y-93002903D01*
X106897438Y-93002913D01*
X106958594Y-93231155D01*
X106958596Y-93231159D01*
X106958597Y-93231163D01*
X107044551Y-93415491D01*
X107058465Y-93445330D01*
X107058467Y-93445334D01*
X107073253Y-93466450D01*
X107194005Y-93638901D01*
X107361099Y-93805995D01*
X107431895Y-93855567D01*
X107554665Y-93941532D01*
X107554667Y-93941533D01*
X107554670Y-93941535D01*
X107768837Y-94041403D01*
X107997092Y-94102563D01*
X108185418Y-94119039D01*
X108232499Y-94123159D01*
X108232500Y-94123159D01*
X108232501Y-94123159D01*
X108271734Y-94119726D01*
X108467908Y-94102563D01*
X108696163Y-94041403D01*
X108910330Y-93941535D01*
X109103901Y-93805995D01*
X109270995Y-93638901D01*
X109380925Y-93481905D01*
X109435502Y-93438280D01*
X109505000Y-93431086D01*
X109567355Y-93462609D01*
X109584075Y-93481905D01*
X109694000Y-93638895D01*
X109694005Y-93638901D01*
X109861099Y-93805995D01*
X109931895Y-93855567D01*
X110054665Y-93941532D01*
X110054667Y-93941533D01*
X110054670Y-93941535D01*
X110268837Y-94041403D01*
X110497092Y-94102563D01*
X110685418Y-94119039D01*
X110732499Y-94123159D01*
X110732500Y-94123159D01*
X110732501Y-94123159D01*
X110771734Y-94119726D01*
X110967908Y-94102563D01*
X111196163Y-94041403D01*
X111410330Y-93941535D01*
X111603901Y-93805995D01*
X111770995Y-93638901D01*
X111880925Y-93481905D01*
X111935502Y-93438280D01*
X112005000Y-93431086D01*
X112067355Y-93462609D01*
X112084075Y-93481905D01*
X112194000Y-93638895D01*
X112194005Y-93638901D01*
X112361099Y-93805995D01*
X112431895Y-93855567D01*
X112554665Y-93941532D01*
X112554667Y-93941533D01*
X112554670Y-93941535D01*
X112768837Y-94041403D01*
X112997092Y-94102563D01*
X113185418Y-94119039D01*
X113232499Y-94123159D01*
X113232500Y-94123159D01*
X113232501Y-94123159D01*
X113271734Y-94119726D01*
X113467908Y-94102563D01*
X113696163Y-94041403D01*
X113910330Y-93941535D01*
X114103901Y-93805995D01*
X114270995Y-93638901D01*
X114406535Y-93445330D01*
X114506403Y-93231163D01*
X114567563Y-93002908D01*
X114588159Y-92767500D01*
X114567563Y-92532092D01*
X114506403Y-92303837D01*
X114406535Y-92089671D01*
X114401117Y-92081932D01*
X114270994Y-91896097D01*
X114103902Y-91729006D01*
X114103896Y-91729001D01*
X113946905Y-91619075D01*
X113903280Y-91564498D01*
X113896086Y-91495000D01*
X113927609Y-91432645D01*
X113946905Y-91415925D01*
X113985656Y-91388791D01*
X114103901Y-91305995D01*
X114270995Y-91138901D01*
X114380925Y-90981905D01*
X114435502Y-90938280D01*
X114505000Y-90931086D01*
X114567355Y-90962609D01*
X114584075Y-90981905D01*
X114694000Y-91138895D01*
X114694005Y-91138901D01*
X114861099Y-91305995D01*
X114923339Y-91349576D01*
X115054665Y-91441532D01*
X115054667Y-91441533D01*
X115054670Y-91441535D01*
X115268837Y-91541403D01*
X115497092Y-91602563D01*
X115685418Y-91619039D01*
X115732499Y-91623159D01*
X115732500Y-91623159D01*
X115732501Y-91623159D01*
X115779179Y-91619075D01*
X115967908Y-91602563D01*
X116196163Y-91541403D01*
X116410330Y-91441535D01*
X116603901Y-91305995D01*
X116770995Y-91138901D01*
X116880925Y-90981905D01*
X116935502Y-90938280D01*
X117005000Y-90931086D01*
X117067355Y-90962609D01*
X117084075Y-90981905D01*
X117194000Y-91138895D01*
X117194005Y-91138901D01*
X117361099Y-91305995D01*
X117423339Y-91349576D01*
X117554665Y-91441532D01*
X117554667Y-91441533D01*
X117554670Y-91441535D01*
X117768837Y-91541403D01*
X117997092Y-91602563D01*
X118185418Y-91619039D01*
X118232499Y-91623159D01*
X118232500Y-91623159D01*
X118232501Y-91623159D01*
X118279179Y-91619075D01*
X118467908Y-91602563D01*
X118696163Y-91541403D01*
X118910330Y-91441535D01*
X119103901Y-91305995D01*
X119270995Y-91138901D01*
X119380925Y-90981905D01*
X119435502Y-90938280D01*
X119505000Y-90931086D01*
X119567355Y-90962609D01*
X119584075Y-90981905D01*
X119694000Y-91138895D01*
X119694005Y-91138901D01*
X119861099Y-91305995D01*
X119923339Y-91349576D01*
X120054665Y-91441532D01*
X120054667Y-91441533D01*
X120054670Y-91441535D01*
X120268837Y-91541403D01*
X120497092Y-91602563D01*
X120685418Y-91619039D01*
X120732499Y-91623159D01*
X120732500Y-91623159D01*
X120732501Y-91623159D01*
X120779179Y-91619075D01*
X120967908Y-91602563D01*
X121196163Y-91541403D01*
X121410330Y-91441535D01*
X121603901Y-91305995D01*
X121770995Y-91138901D01*
X121880925Y-90981905D01*
X121935502Y-90938280D01*
X122005000Y-90931086D01*
X122067355Y-90962609D01*
X122084075Y-90981905D01*
X122194001Y-91138896D01*
X122194006Y-91138902D01*
X122361097Y-91305993D01*
X122361103Y-91305998D01*
X122518095Y-91415925D01*
X122561720Y-91470502D01*
X122568914Y-91540000D01*
X122537391Y-91602355D01*
X122518095Y-91619075D01*
X122361097Y-91729005D01*
X122194005Y-91896097D01*
X122058465Y-92089669D01*
X122058464Y-92089671D01*
X121958598Y-92303835D01*
X121958594Y-92303844D01*
X121897438Y-92532086D01*
X121897436Y-92532096D01*
X121876841Y-92767499D01*
X121876841Y-92767500D01*
X121897436Y-93002903D01*
X121897438Y-93002913D01*
X121958594Y-93231155D01*
X121958596Y-93231159D01*
X121958597Y-93231163D01*
X122044551Y-93415491D01*
X122058465Y-93445330D01*
X122058467Y-93445334D01*
X122073253Y-93466450D01*
X122194005Y-93638901D01*
X122361099Y-93805995D01*
X122431895Y-93855567D01*
X122554665Y-93941532D01*
X122554667Y-93941533D01*
X122554670Y-93941535D01*
X122768837Y-94041403D01*
X122997092Y-94102563D01*
X123185418Y-94119039D01*
X123232499Y-94123159D01*
X123232500Y-94123159D01*
X123232501Y-94123159D01*
X123271734Y-94119726D01*
X123467908Y-94102563D01*
X123696163Y-94041403D01*
X123910330Y-93941535D01*
X124103901Y-93805995D01*
X124270995Y-93638901D01*
X124380925Y-93481905D01*
X124435502Y-93438280D01*
X124505000Y-93431086D01*
X124567355Y-93462609D01*
X124584075Y-93481905D01*
X124694000Y-93638895D01*
X124694005Y-93638901D01*
X124861099Y-93805995D01*
X124931895Y-93855567D01*
X125054665Y-93941532D01*
X125054667Y-93941533D01*
X125054670Y-93941535D01*
X125268837Y-94041403D01*
X125497092Y-94102563D01*
X125685418Y-94119039D01*
X125732499Y-94123159D01*
X125732500Y-94123159D01*
X125732501Y-94123159D01*
X125771734Y-94119726D01*
X125967908Y-94102563D01*
X126196163Y-94041403D01*
X126410330Y-93941535D01*
X126603901Y-93805995D01*
X126770995Y-93638901D01*
X126906535Y-93445330D01*
X127006403Y-93231163D01*
X127067563Y-93002908D01*
X127088159Y-92767500D01*
X127067563Y-92532092D01*
X127006403Y-92303837D01*
X126906535Y-92089671D01*
X126901117Y-92081932D01*
X126770994Y-91896097D01*
X126603902Y-91729006D01*
X126603896Y-91729001D01*
X126446905Y-91619075D01*
X126403280Y-91564498D01*
X126396086Y-91495000D01*
X126427609Y-91432645D01*
X126446905Y-91415925D01*
X126485656Y-91388791D01*
X126603901Y-91305995D01*
X126770995Y-91138901D01*
X126906535Y-90945330D01*
X127006403Y-90731163D01*
X127067563Y-90502908D01*
X127088159Y-90267500D01*
X127067563Y-90032092D01*
X127006403Y-89803837D01*
X126906535Y-89589671D01*
X126894436Y-89572391D01*
X126770994Y-89396097D01*
X126603902Y-89229006D01*
X126603895Y-89229001D01*
X126410334Y-89093467D01*
X126410330Y-89093465D01*
X126343241Y-89062181D01*
X126196163Y-88993597D01*
X126196159Y-88993596D01*
X126196155Y-88993594D01*
X125967913Y-88932438D01*
X125967903Y-88932436D01*
X125732501Y-88911841D01*
X125732499Y-88911841D01*
X125497096Y-88932436D01*
X125497086Y-88932438D01*
X125268844Y-88993594D01*
X125268835Y-88993598D01*
X125054671Y-89093464D01*
X125054669Y-89093465D01*
X124861097Y-89229005D01*
X124694005Y-89396097D01*
X124584075Y-89553095D01*
X124529498Y-89596720D01*
X124460000Y-89603914D01*
X124397645Y-89572391D01*
X124380925Y-89553095D01*
X124270994Y-89396097D01*
X124103902Y-89229006D01*
X124103895Y-89229001D01*
X123910334Y-89093467D01*
X123910330Y-89093465D01*
X123843241Y-89062181D01*
X123696163Y-88993597D01*
X123696159Y-88993596D01*
X123696155Y-88993594D01*
X123467913Y-88932438D01*
X123467903Y-88932436D01*
X123232501Y-88911841D01*
X123232499Y-88911841D01*
X122997096Y-88932436D01*
X122997086Y-88932438D01*
X122768844Y-88993594D01*
X122768835Y-88993598D01*
X122554671Y-89093464D01*
X122554669Y-89093465D01*
X122361097Y-89229005D01*
X122194005Y-89396097D01*
X122084075Y-89553095D01*
X122029498Y-89596720D01*
X121960000Y-89603914D01*
X121897645Y-89572391D01*
X121880925Y-89553095D01*
X121770994Y-89396097D01*
X121603902Y-89229006D01*
X121603895Y-89229001D01*
X121410334Y-89093467D01*
X121410330Y-89093465D01*
X121343241Y-89062181D01*
X121196163Y-88993597D01*
X121196159Y-88993596D01*
X121196155Y-88993594D01*
X120967913Y-88932438D01*
X120967903Y-88932436D01*
X120732501Y-88911841D01*
X120732499Y-88911841D01*
X120497096Y-88932436D01*
X120497086Y-88932438D01*
X120268844Y-88993594D01*
X120268835Y-88993598D01*
X120054671Y-89093464D01*
X120054669Y-89093465D01*
X119861097Y-89229005D01*
X119694005Y-89396097D01*
X119584075Y-89553095D01*
X119529498Y-89596720D01*
X119460000Y-89603914D01*
X119397645Y-89572391D01*
X119380925Y-89553095D01*
X119270994Y-89396097D01*
X119103902Y-89229006D01*
X119103895Y-89229001D01*
X118910334Y-89093467D01*
X118910330Y-89093465D01*
X118843241Y-89062181D01*
X118696163Y-88993597D01*
X118696159Y-88993596D01*
X118696155Y-88993594D01*
X118467913Y-88932438D01*
X118467903Y-88932436D01*
X118232501Y-88911841D01*
X118232499Y-88911841D01*
X117997096Y-88932436D01*
X117997086Y-88932438D01*
X117768844Y-88993594D01*
X117768835Y-88993598D01*
X117554671Y-89093464D01*
X117554669Y-89093465D01*
X117361097Y-89229005D01*
X117194005Y-89396097D01*
X117084075Y-89553095D01*
X117029498Y-89596720D01*
X116960000Y-89603914D01*
X116897645Y-89572391D01*
X116880925Y-89553095D01*
X116770994Y-89396097D01*
X116603902Y-89229006D01*
X116603895Y-89229001D01*
X116410334Y-89093467D01*
X116410330Y-89093465D01*
X116343241Y-89062181D01*
X116196163Y-88993597D01*
X116196159Y-88993596D01*
X116196155Y-88993594D01*
X115967913Y-88932438D01*
X115967903Y-88932436D01*
X115732501Y-88911841D01*
X115732499Y-88911841D01*
X115497096Y-88932436D01*
X115497086Y-88932438D01*
X115268844Y-88993594D01*
X115268835Y-88993598D01*
X115054671Y-89093464D01*
X115054669Y-89093465D01*
X114861097Y-89229005D01*
X114694005Y-89396097D01*
X114584075Y-89553095D01*
X114529498Y-89596720D01*
X114460000Y-89603914D01*
X114397645Y-89572391D01*
X114380925Y-89553095D01*
X114270994Y-89396097D01*
X114103902Y-89229006D01*
X114103895Y-89229001D01*
X113910334Y-89093467D01*
X113910330Y-89093465D01*
X113843241Y-89062181D01*
X113696163Y-88993597D01*
X113696159Y-88993596D01*
X113696155Y-88993594D01*
X113467913Y-88932438D01*
X113467903Y-88932436D01*
X113232501Y-88911841D01*
X113232499Y-88911841D01*
X112997096Y-88932436D01*
X112997086Y-88932438D01*
X112768844Y-88993594D01*
X112768835Y-88993598D01*
X112554671Y-89093464D01*
X112554669Y-89093465D01*
X112361097Y-89229005D01*
X112194005Y-89396097D01*
X112084075Y-89553095D01*
X112029498Y-89596720D01*
X111960000Y-89603914D01*
X111897645Y-89572391D01*
X111880925Y-89553095D01*
X111770994Y-89396097D01*
X111603902Y-89229006D01*
X111603895Y-89229001D01*
X111410334Y-89093467D01*
X111410330Y-89093465D01*
X111343241Y-89062181D01*
X111196163Y-88993597D01*
X111196159Y-88993596D01*
X111196155Y-88993594D01*
X110967913Y-88932438D01*
X110967903Y-88932436D01*
X110732501Y-88911841D01*
X110732499Y-88911841D01*
X110497096Y-88932436D01*
X110497086Y-88932438D01*
X110268844Y-88993594D01*
X110268835Y-88993598D01*
X110054671Y-89093464D01*
X110054669Y-89093465D01*
X109861097Y-89229005D01*
X109694005Y-89396097D01*
X109584075Y-89553095D01*
X109529498Y-89596720D01*
X109460000Y-89603914D01*
X109397645Y-89572391D01*
X109380925Y-89553095D01*
X109270994Y-89396097D01*
X109103902Y-89229006D01*
X109103895Y-89229001D01*
X108910334Y-89093467D01*
X108910330Y-89093465D01*
X108843241Y-89062181D01*
X108696163Y-88993597D01*
X108696159Y-88993596D01*
X108696155Y-88993594D01*
X108467913Y-88932438D01*
X108467903Y-88932436D01*
X108232501Y-88911841D01*
X108232499Y-88911841D01*
X107997096Y-88932436D01*
X107997086Y-88932438D01*
X107768844Y-88993594D01*
X107768835Y-88993598D01*
X107554671Y-89093464D01*
X107554669Y-89093465D01*
X107361097Y-89229005D01*
X107194005Y-89396097D01*
X107058465Y-89589669D01*
X107058464Y-89589671D01*
X106958598Y-89803835D01*
X106958594Y-89803844D01*
X106897438Y-90032086D01*
X106897436Y-90032096D01*
X106876841Y-90267499D01*
X106876841Y-90267500D01*
X106897436Y-90502903D01*
X106897438Y-90502913D01*
X106958594Y-90731155D01*
X106958596Y-90731159D01*
X106958597Y-90731163D01*
X107024990Y-90873543D01*
X107058465Y-90945330D01*
X107058467Y-90945334D01*
X107119757Y-91032864D01*
X107194001Y-91138896D01*
X107194006Y-91138902D01*
X107361097Y-91305993D01*
X107361103Y-91305998D01*
X107518095Y-91415925D01*
X107561720Y-91470502D01*
X107568914Y-91540000D01*
X107537391Y-91602355D01*
X107518095Y-91619075D01*
X107361097Y-91729005D01*
X107194005Y-91896097D01*
X107058465Y-92089669D01*
X107058464Y-92089671D01*
X106958598Y-92303835D01*
X106958594Y-92303844D01*
X106897438Y-92532086D01*
X106897436Y-92532096D01*
X106876841Y-92767499D01*
X106876841Y-92767500D01*
X101600500Y-92767500D01*
X101600500Y-88067163D01*
X127503228Y-88067163D01*
X127533268Y-88263264D01*
X127533271Y-88263277D01*
X127602173Y-88449315D01*
X127602177Y-88449324D01*
X127707116Y-88617684D01*
X127707121Y-88617691D01*
X127843806Y-88761483D01*
X127843809Y-88761486D01*
X128006646Y-88874824D01*
X128188965Y-88953063D01*
X128383301Y-88993000D01*
X128531974Y-88993000D01*
X128679880Y-88977959D01*
X128751978Y-88955338D01*
X128869178Y-88918567D01*
X129042646Y-88822284D01*
X129193182Y-88693053D01*
X129314622Y-88536166D01*
X129401995Y-88358044D01*
X129430678Y-88247265D01*
X129451722Y-88165988D01*
X129451723Y-88165982D01*
X129451724Y-88165980D01*
X129461772Y-87967837D01*
X129431730Y-87771727D01*
X129362825Y-87585680D01*
X129328767Y-87531039D01*
X129257883Y-87417315D01*
X129257878Y-87417308D01*
X129121193Y-87273516D01*
X129121192Y-87273515D01*
X129085848Y-87248915D01*
X128958354Y-87160176D01*
X128958355Y-87160176D01*
X128958353Y-87160175D01*
X128776035Y-87081937D01*
X128581699Y-87042000D01*
X128433027Y-87042000D01*
X128433026Y-87042000D01*
X128285119Y-87057040D01*
X128095829Y-87116430D01*
X128095820Y-87116434D01*
X127922352Y-87212717D01*
X127922351Y-87212717D01*
X127771819Y-87341945D01*
X127771817Y-87341946D01*
X127650379Y-87498831D01*
X127650377Y-87498835D01*
X127563003Y-87676959D01*
X127513277Y-87869011D01*
X127513276Y-87869017D01*
X127503228Y-88067162D01*
X127503228Y-88067163D01*
X101600500Y-88067163D01*
X101600500Y-86484500D01*
X101620185Y-86417461D01*
X101672989Y-86371706D01*
X101724500Y-86360500D01*
X178945500Y-86360500D01*
X179012539Y-86380185D01*
G37*
%TD.AperFunction*%
%TD*%
M02*
