%TF.GenerationSoftware,KiCad,Pcbnew,7.0.8*%
%TF.CreationDate,2025-02-14T01:10:43+05:30*%
%TF.ProjectId,7 segmetn display,37207365-676d-4657-946e-20646973706c,rev?*%
%TF.SameCoordinates,Original*%
%TF.FileFunction,Soldermask,Top*%
%TF.FilePolarity,Negative*%
%FSLAX46Y46*%
G04 Gerber Fmt 4.6, Leading zero omitted, Abs format (unit mm)*
G04 Created by KiCad (PCBNEW 7.0.8) date 2025-02-14 01:10:43*
%MOMM*%
%LPD*%
G01*
G04 APERTURE LIST*
%ADD10C,1.450000*%
%ADD11R,1.700000X1.700000*%
%ADD12C,1.700000*%
%ADD13C,1.600000*%
%ADD14O,1.600000X1.600000*%
%ADD15R,1.600000X1.600000*%
%ADD16O,1.700000X1.700000*%
G04 APERTURE END LIST*
D10*
%TO.C,U2*%
X105482500Y-122517500D03*
X128482500Y-88017500D03*
D11*
X108232500Y-120267500D03*
D12*
X110732500Y-120267500D03*
X113232500Y-120267500D03*
X115732500Y-120267500D03*
X118232500Y-120267500D03*
X120732500Y-120267500D03*
X108232500Y-117767500D03*
X110732500Y-117767500D03*
X120732500Y-117767500D03*
X108232500Y-92767500D03*
X110732500Y-92767500D03*
X113232500Y-92767500D03*
X123232500Y-92767500D03*
X125732500Y-92767500D03*
X108232500Y-90267500D03*
X110732500Y-90267500D03*
X113232500Y-90267500D03*
X115732500Y-90267500D03*
X118232500Y-90267500D03*
X120732500Y-90267500D03*
X123232500Y-90267500D03*
X125732500Y-90267500D03*
%TD*%
D13*
%TO.C,R5*%
X157480000Y-111760000D03*
D14*
X157480000Y-99060000D03*
%TD*%
D15*
%TO.C,U1*%
X167650000Y-90185000D03*
D14*
X167650000Y-92725000D03*
X167650000Y-95265000D03*
X167650000Y-97805000D03*
X167650000Y-100345000D03*
X167650000Y-102885000D03*
X167650000Y-105425000D03*
X167650000Y-107965000D03*
X175270000Y-107965000D03*
X175270000Y-105425000D03*
X175270000Y-102885000D03*
X175270000Y-100345000D03*
X175270000Y-97805000D03*
X175270000Y-95265000D03*
X175270000Y-92725000D03*
X175270000Y-90185000D03*
%TD*%
D13*
%TO.C,R1*%
X134620000Y-104140000D03*
D14*
X147320000Y-104140000D03*
%TD*%
D15*
%TO.C,SW1*%
X135890000Y-96520000D03*
D14*
X138430000Y-96520000D03*
X140970000Y-96520000D03*
X143510000Y-96520000D03*
X143510000Y-88900000D03*
X140970000Y-88900000D03*
X138430000Y-88900000D03*
X135890000Y-88900000D03*
%TD*%
D13*
%TO.C,R3*%
X134620000Y-119380000D03*
D14*
X147320000Y-119380000D03*
%TD*%
D13*
%TO.C,R4*%
X153670000Y-119380000D03*
D14*
X166370000Y-119380000D03*
%TD*%
D11*
%TO.C,J1*%
X176530000Y-118110000D03*
D16*
X176530000Y-120650000D03*
%TD*%
D13*
%TO.C,R2*%
X134620000Y-111760000D03*
D14*
X147320000Y-111760000D03*
%TD*%
M02*
