%TF.GenerationSoftware,KiCad,Pcbnew,7.0.8*%
%TF.CreationDate,2025-02-14T01:10:42+05:30*%
%TF.ProjectId,7 segmetn display,37207365-676d-4657-946e-20646973706c,rev?*%
%TF.SameCoordinates,Original*%
%TF.FileFunction,Copper,L1,Top*%
%TF.FilePolarity,Positive*%
%FSLAX46Y46*%
G04 Gerber Fmt 4.6, Leading zero omitted, Abs format (unit mm)*
G04 Created by KiCad (PCBNEW 7.0.8) date 2025-02-14 01:10:42*
%MOMM*%
%LPD*%
G01*
G04 APERTURE LIST*
%TA.AperFunction,ComponentPad*%
%ADD10R,1.700000X1.700000*%
%TD*%
%TA.AperFunction,ComponentPad*%
%ADD11C,1.700000*%
%TD*%
%TA.AperFunction,ComponentPad*%
%ADD12C,1.600000*%
%TD*%
%TA.AperFunction,ComponentPad*%
%ADD13O,1.600000X1.600000*%
%TD*%
%TA.AperFunction,ComponentPad*%
%ADD14R,1.600000X1.600000*%
%TD*%
%TA.AperFunction,ComponentPad*%
%ADD15O,1.700000X1.700000*%
%TD*%
%TA.AperFunction,ViaPad*%
%ADD16C,0.800000*%
%TD*%
%TA.AperFunction,Conductor*%
%ADD17C,0.635000*%
%TD*%
%TA.AperFunction,Conductor*%
%ADD18C,2.540000*%
%TD*%
%TA.AperFunction,Conductor*%
%ADD19C,1.270000*%
%TD*%
%TA.AperFunction,Conductor*%
%ADD20C,0.250000*%
%TD*%
G04 APERTURE END LIST*
D10*
%TO.P,U2,1,E*%
%TO.N,Net-(U1-e)*%
X108232500Y-120267500D03*
D11*
%TO.P,U2,2,D*%
%TO.N,Net-(U1-d)*%
X110732500Y-120267500D03*
%TO.P,U2,3,CC*%
%TO.N,Net-(R2-Pad2)*%
X113232500Y-120267500D03*
%TO.P,U2,4,C*%
%TO.N,Net-(U1-c)*%
X115732500Y-120267500D03*
%TO.P,U2,5,DP*%
%TO.N,unconnected-(U2-DP-Pad5)*%
X118232500Y-120267500D03*
%TO.P,U2,6,B*%
%TO.N,Net-(U1-b)*%
X120732500Y-120267500D03*
%TO.P,U2,9,F*%
%TO.N,Net-(U1-f)*%
X108232500Y-117767500D03*
%TO.P,U2,10,G*%
%TO.N,Net-(U1-g)*%
X110732500Y-117767500D03*
%TO.P,U2,11*%
%TO.N,N/C*%
X120732500Y-117767500D03*
%TO.P,U2,13*%
X108232500Y-92767500D03*
%TO.P,U2,14*%
X110732500Y-92767500D03*
%TO.P,U2,15*%
X113232500Y-92767500D03*
%TO.P,U2,16*%
X123232500Y-92767500D03*
%TO.P,U2,17*%
X125732500Y-92767500D03*
%TO.P,U2,18*%
X108232500Y-90267500D03*
%TO.P,U2,19*%
X110732500Y-90267500D03*
%TO.P,U2,20*%
X113232500Y-90267500D03*
%TO.P,U2,21*%
X115732500Y-90267500D03*
%TO.P,U2,22*%
X118232500Y-90267500D03*
%TO.P,U2,23*%
X120732500Y-90267500D03*
%TO.P,U2,24*%
X123232500Y-90267500D03*
%TO.P,U2,25*%
X125732500Y-90267500D03*
%TD*%
D12*
%TO.P,R5,1*%
%TO.N,Net-(U1-A)*%
X157480000Y-111760000D03*
D13*
%TO.P,R5,2*%
%TO.N,GND*%
X157480000Y-99060000D03*
%TD*%
D14*
%TO.P,U1,1,B*%
%TO.N,Net-(U1-B)*%
X167650000Y-90185000D03*
D13*
%TO.P,U1,2,C*%
%TO.N,Net-(U1-C)*%
X167650000Y-92725000D03*
%TO.P,U1,3,LT*%
%TO.N,+5V*%
X167650000Y-95265000D03*
%TO.P,U1,4,BI*%
X167650000Y-97805000D03*
%TO.P,U1,5,RBI*%
X167650000Y-100345000D03*
%TO.P,U1,6,D*%
%TO.N,Net-(U1-D)*%
X167650000Y-102885000D03*
%TO.P,U1,7,A*%
%TO.N,Net-(U1-A)*%
X167650000Y-105425000D03*
%TO.P,U1,8,GND*%
%TO.N,GND*%
X167650000Y-107965000D03*
%TO.P,U1,9,e*%
%TO.N,Net-(U1-e)*%
X175270000Y-107965000D03*
%TO.P,U1,10,d*%
%TO.N,Net-(U1-d)*%
X175270000Y-105425000D03*
%TO.P,U1,11,c*%
%TO.N,Net-(U1-c)*%
X175270000Y-102885000D03*
%TO.P,U1,12,b*%
%TO.N,Net-(U1-b)*%
X175270000Y-100345000D03*
%TO.P,U1,13,a*%
%TO.N,Net-(U1-a)*%
X175270000Y-97805000D03*
%TO.P,U1,14,g*%
%TO.N,Net-(U1-g)*%
X175270000Y-95265000D03*
%TO.P,U1,15,f*%
%TO.N,Net-(U1-f)*%
X175270000Y-92725000D03*
%TO.P,U1,16,VCC*%
%TO.N,+5V*%
X175270000Y-90185000D03*
%TD*%
D12*
%TO.P,R1,1*%
%TO.N,Net-(U1-B)*%
X134620000Y-104140000D03*
D13*
%TO.P,R1,2*%
%TO.N,GND*%
X147320000Y-104140000D03*
%TD*%
D14*
%TO.P,SW1,1*%
%TO.N,+5V*%
X135890000Y-96520000D03*
D13*
%TO.P,SW1,2*%
X138430000Y-96520000D03*
%TO.P,SW1,3*%
X140970000Y-96520000D03*
%TO.P,SW1,4*%
X143510000Y-96520000D03*
%TO.P,SW1,5*%
%TO.N,Net-(U1-B)*%
X143510000Y-88900000D03*
%TO.P,SW1,6*%
%TO.N,Net-(U1-C)*%
X140970000Y-88900000D03*
%TO.P,SW1,7*%
%TO.N,Net-(U1-D)*%
X138430000Y-88900000D03*
%TO.P,SW1,8*%
%TO.N,Net-(U1-A)*%
X135890000Y-88900000D03*
%TD*%
D12*
%TO.P,R3,1*%
%TO.N,Net-(U1-C)*%
X134620000Y-119380000D03*
D13*
%TO.P,R3,2*%
%TO.N,GND*%
X147320000Y-119380000D03*
%TD*%
D12*
%TO.P,R4,1*%
%TO.N,Net-(U1-D)*%
X153670000Y-119380000D03*
D13*
%TO.P,R4,2*%
%TO.N,GND*%
X166370000Y-119380000D03*
%TD*%
D10*
%TO.P,J1,1,Pin_1*%
%TO.N,+5V*%
X176530000Y-118110000D03*
D15*
%TO.P,J1,2,Pin_2*%
%TO.N,GND*%
X176530000Y-120650000D03*
%TD*%
D12*
%TO.P,R2,1*%
%TO.N,+5V*%
X134620000Y-111760000D03*
D13*
%TO.P,R2,2*%
%TO.N,Net-(R2-Pad2)*%
X147320000Y-111760000D03*
%TD*%
D16*
%TO.N,+5V*%
X157480000Y-95250000D03*
%TO.N,GND*%
X153670000Y-102870000D03*
%TO.N,Net-(U1-D)*%
X156210000Y-93980000D03*
%TO.N,Net-(U1-A)*%
X161290000Y-115570000D03*
X140970000Y-107950000D03*
%TO.N,Net-(U1-d)*%
X170180000Y-90170000D03*
X170180000Y-90170000D03*
X172720000Y-99060000D03*
%TD*%
D17*
%TO.N,+5V*%
X157487500Y-95257500D02*
X157480000Y-95250000D01*
X169437500Y-103396453D02*
X169437500Y-108763536D01*
X171031292Y-112611292D02*
X176530000Y-118110000D01*
X168543750Y-101238750D02*
X167650000Y-100345000D01*
X157505606Y-95265000D02*
X167650000Y-95265000D01*
X169437519Y-103396453D02*
G75*
G03*
X168543750Y-101238750I-3051519J-47D01*
G01*
X169437490Y-108763536D02*
G75*
G03*
X171031293Y-112611291I5441610J36D01*
G01*
X157487498Y-95257502D02*
G75*
G03*
X157505606Y-95265000I18102J18102D01*
G01*
D18*
%TO.N,GND*%
X166370000Y-119380000D02*
X166370000Y-110150096D01*
D19*
X153670000Y-102870000D02*
X157032754Y-99507245D01*
D18*
X167005000Y-120015000D02*
X166370000Y-119380000D01*
D19*
X167010000Y-107325000D02*
X159192245Y-99507245D01*
D18*
X168538025Y-120650000D02*
X176530000Y-120650000D01*
D17*
X146002500Y-106389113D02*
X146002500Y-117130886D01*
X146661250Y-104798750D02*
X147320000Y-104140000D01*
X146661250Y-118721250D02*
X147320000Y-119380000D01*
D18*
X167010001Y-108605001D02*
G75*
G03*
X166370000Y-110150096I1545099J-1545099D01*
G01*
D19*
X167010000Y-108605000D02*
G75*
G03*
X167010000Y-107325000I-640000J640000D01*
G01*
X158112500Y-99060003D02*
G75*
G03*
X157032755Y-99507246I0J-1526997D01*
G01*
D17*
X146661246Y-104798746D02*
G75*
G03*
X146002500Y-106389113I1590354J-1590354D01*
G01*
X146002506Y-117130886D02*
G75*
G03*
X146661250Y-118721250I2249094J-14D01*
G01*
D19*
X159192247Y-99507243D02*
G75*
G03*
X158112500Y-99060000I-1079747J-1079757D01*
G01*
D18*
X167004992Y-120015008D02*
G75*
G03*
X168538025Y-120650000I1533008J1533008D01*
G01*
D17*
%TO.N,Net-(U1-B)*%
X143233707Y-98652406D02*
X138851362Y-103034751D01*
X167007500Y-89542500D02*
X167650000Y-90185000D01*
X144441613Y-88900000D02*
X165456367Y-88900000D01*
X144827500Y-94804650D02*
X144827500Y-91149113D01*
X136183057Y-104140000D02*
X134620000Y-104140000D01*
X144441613Y-88900032D02*
G75*
G03*
X144168750Y-89558750I-13J-385868D01*
G01*
X136183057Y-104139955D02*
G75*
G03*
X138851362Y-103034751I43J3773555D01*
G01*
X167007509Y-89542491D02*
G75*
G03*
X165456367Y-88900000I-1551109J-1551109D01*
G01*
X144827494Y-91149113D02*
G75*
G03*
X144168750Y-89558750I-2249094J13D01*
G01*
X143233693Y-98652392D02*
G75*
G03*
X144827500Y-94804650I-3847793J3847792D01*
G01*
%TO.N,Net-(R2-Pad2)*%
X113913922Y-120948922D02*
X113232500Y-120267500D01*
X115559020Y-121630344D02*
X145715394Y-121630344D01*
X147978750Y-112418750D02*
X147320000Y-111760000D01*
X148637500Y-118708238D02*
X148637500Y-114009113D01*
X113913907Y-120948937D02*
G75*
G03*
X115559020Y-121630344I1645093J1645137D01*
G01*
X147781615Y-120774459D02*
G75*
G03*
X148637500Y-118708238I-2066215J2066259D01*
G01*
X148637494Y-114009113D02*
G75*
G03*
X147978750Y-112418750I-2249094J13D01*
G01*
X145715394Y-121630328D02*
G75*
G03*
X147781635Y-120774479I6J2922128D01*
G01*
D20*
%TO.N,Net-(U1-C)*%
X133495000Y-98628963D02*
X133495000Y-104025328D01*
X154376461Y-94318792D02*
X144879046Y-103816207D01*
X141031290Y-105410000D02*
X134879671Y-105410000D01*
X158224217Y-92725000D02*
X167650000Y-92725000D01*
X135088792Y-94781207D02*
X140970000Y-88900000D01*
X141031290Y-105409977D02*
G75*
G03*
X144879045Y-103816206I10J5441577D01*
G01*
X133900569Y-105004431D02*
G75*
G03*
X134879671Y-105410000I979131J979131D01*
G01*
X158224217Y-92724998D02*
G75*
G03*
X154376462Y-94318793I-17J-5441502D01*
G01*
X133494989Y-104025328D02*
G75*
G03*
X133900561Y-105004439I1384711J28D01*
G01*
X135088821Y-94781236D02*
G75*
G03*
X133495000Y-98628963I3847679J-3847764D01*
G01*
D17*
%TO.N,Net-(U1-D)*%
X156210000Y-93980000D02*
X156210000Y-94628770D01*
X157524979Y-96592520D02*
X156668750Y-95736291D01*
X167650000Y-102882500D02*
X167650000Y-102885000D01*
X167648232Y-102878232D02*
X164034275Y-99264275D01*
X160699620Y-97907500D02*
X160758729Y-97907500D01*
X156210030Y-94628770D02*
G75*
G03*
X156668750Y-95736291I1566270J-30D01*
G01*
X157524973Y-96592526D02*
G75*
G03*
X160699620Y-97907500I3174627J3174626D01*
G01*
X167650010Y-102882500D02*
G75*
G03*
X167648232Y-102878232I-6010J0D01*
G01*
X164034256Y-99264294D02*
G75*
G03*
X160758729Y-97907500I-3275556J-3275506D01*
G01*
%TO.N,Net-(U1-A)*%
X161290000Y-115570000D02*
X157480000Y-111760000D01*
X134371250Y-90418750D02*
X135890000Y-88900000D01*
X138118907Y-107950000D02*
X140970000Y-107950000D01*
X132852500Y-94085336D02*
X132852500Y-102683592D01*
X134394993Y-106407507D02*
G75*
G03*
X138118907Y-107950000I3723907J3723907D01*
G01*
X132852504Y-102683592D02*
G75*
G03*
X134394996Y-106407504I5266396J-8D01*
G01*
X134371239Y-90418739D02*
G75*
G03*
X132852500Y-94085336I3666561J-3666561D01*
G01*
%TO.N,Net-(U1-e)*%
X175928750Y-107306250D02*
X175270000Y-107965000D01*
X106865000Y-117933031D02*
X106865000Y-116894009D01*
X171638792Y-86747500D02*
X137259481Y-86747500D01*
X108283449Y-113469568D02*
X133411725Y-88341292D01*
X107548750Y-119583750D02*
X108232500Y-120267500D01*
X176587500Y-105715886D02*
X176587500Y-91696207D01*
X175928754Y-107306254D02*
G75*
G03*
X176587500Y-105715886I-1590354J1590354D01*
G01*
X106864987Y-117933031D02*
G75*
G03*
X107548750Y-119583750I2334513J31D01*
G01*
X108283443Y-113469562D02*
G75*
G03*
X106865000Y-116894009I3424457J-3424438D01*
G01*
X175138059Y-88196941D02*
G75*
G03*
X171638792Y-86747500I-3499259J-3499259D01*
G01*
X137259481Y-86747472D02*
G75*
G03*
X133411725Y-88341292I19J-5441528D01*
G01*
X176587496Y-91696207D02*
G75*
G03*
X175138056Y-88196944I-4948696J7D01*
G01*
%TO.N,Net-(U1-d)*%
X172720000Y-99060000D02*
X172720000Y-94506051D01*
X170180000Y-90170000D02*
X171450000Y-91440000D01*
X172720020Y-94506051D02*
G75*
G03*
X171450000Y-91440000I-4336120J-49D01*
G01*
%TO.N,Net-(U1-b)*%
X178752500Y-119928053D02*
X178752500Y-114441127D01*
X148673193Y-102822500D02*
X147922575Y-102822500D01*
X164582500Y-118481973D02*
X164582500Y-118480203D01*
X174193750Y-101421250D02*
X175270000Y-100345000D01*
X174523873Y-111623627D02*
X174932428Y-112032182D01*
X168538025Y-122437500D02*
X176243053Y-122437500D01*
X129326036Y-120267500D02*
X120732500Y-120267500D01*
X133173792Y-118673707D02*
X144374262Y-107473237D01*
X173117500Y-108228342D02*
X173117500Y-104019547D01*
X151902709Y-104160209D02*
X163422701Y-115680201D01*
X145974442Y-103629442D02*
X145960737Y-103643148D01*
X145960737Y-103643148D02*
G75*
G03*
X145167500Y-105558193I1915063J-1915052D01*
G01*
X176243053Y-122437521D02*
G75*
G03*
X178017499Y-121702499I-53J2509521D01*
G01*
X174193736Y-101421236D02*
G75*
G03*
X173117500Y-104019547I2598264J-2598264D01*
G01*
X174932434Y-112032176D02*
G75*
G03*
X177341373Y-113030000I2408966J2408976D01*
G01*
X129326036Y-120267510D02*
G75*
G03*
X133173792Y-118673707I-36J5441610D01*
G01*
X164582497Y-118480203D02*
G75*
G03*
X163422700Y-115680202I-3959797J3D01*
G01*
X144374270Y-107473245D02*
G75*
G03*
X145167500Y-105558193I-1915070J1915045D01*
G01*
X147922575Y-102822489D02*
G75*
G03*
X145974442Y-103629442I25J-2755111D01*
G01*
X173117483Y-108228342D02*
G75*
G03*
X174523873Y-111623627I4801717J42D01*
G01*
X151902707Y-104160211D02*
G75*
G03*
X148673193Y-102822500I-3229507J-3229489D01*
G01*
X178752500Y-114441127D02*
G75*
G03*
X177341373Y-113030000I-1411100J27D01*
G01*
X164582511Y-118481973D02*
G75*
G03*
X165741046Y-121278953I3955489J-27D01*
G01*
X178017484Y-121702484D02*
G75*
G03*
X178752500Y-119928053I-1774484J1774484D01*
G01*
X165741039Y-121278960D02*
G75*
G03*
X168538025Y-122437500I2796961J2796960D01*
G01*
%TO.N,Net-(U1-f)*%
X133757593Y-89176292D02*
X121626535Y-101307350D01*
X137605349Y-87582500D02*
X167873536Y-87582500D01*
X119458464Y-106541535D02*
X108232500Y-117767500D01*
X171721292Y-89176292D02*
X175270000Y-92725000D01*
X121626520Y-101307335D02*
G75*
G03*
X120542500Y-103924443I2617080J-2617065D01*
G01*
X171721284Y-89176300D02*
G75*
G03*
X167873536Y-87582500I-3847784J-3847800D01*
G01*
X137605349Y-87582520D02*
G75*
G03*
X133757593Y-89176292I-49J-5441480D01*
G01*
X119458437Y-106541508D02*
G75*
G03*
X120542500Y-103924443I-2617037J2617108D01*
G01*
%TD*%
%TA.AperFunction,Conductor*%
%TO.N,GND*%
G36*
X134453689Y-86380185D02*
G01*
X134499444Y-86432989D01*
X134509388Y-86502147D01*
X134480363Y-86565703D01*
X134446078Y-86593332D01*
X134063377Y-86802306D01*
X134063378Y-86802306D01*
X134063376Y-86802307D01*
X133687235Y-87044042D01*
X133329297Y-87311995D01*
X133329292Y-87311999D01*
X133207758Y-87417311D01*
X132991390Y-87604798D01*
X132860416Y-87735771D01*
X132860404Y-87735785D01*
X127190323Y-93405866D01*
X127129000Y-93439351D01*
X127059308Y-93434367D01*
X127003375Y-93392495D01*
X126978958Y-93327031D01*
X126990261Y-93265779D01*
X127006400Y-93231169D01*
X127006403Y-93231163D01*
X127067563Y-93002908D01*
X127088159Y-92767500D01*
X127067563Y-92532092D01*
X127006403Y-92303837D01*
X126906535Y-92089671D01*
X126894436Y-92072391D01*
X126770994Y-91896097D01*
X126603902Y-91729006D01*
X126603896Y-91729001D01*
X126446905Y-91619075D01*
X126403280Y-91564498D01*
X126396086Y-91495000D01*
X126427609Y-91432645D01*
X126446905Y-91415925D01*
X126551699Y-91342547D01*
X126603901Y-91305995D01*
X126770995Y-91138901D01*
X126906535Y-90945330D01*
X127006403Y-90731163D01*
X127067563Y-90502908D01*
X127088159Y-90267500D01*
X127067563Y-90032092D01*
X127006403Y-89803837D01*
X126906535Y-89589671D01*
X126894436Y-89572391D01*
X126770994Y-89396097D01*
X126603902Y-89229006D01*
X126603895Y-89229001D01*
X126410334Y-89093467D01*
X126410330Y-89093465D01*
X126410328Y-89093464D01*
X126196163Y-88993597D01*
X126196159Y-88993596D01*
X126196155Y-88993594D01*
X125967913Y-88932438D01*
X125967903Y-88932436D01*
X125732501Y-88911841D01*
X125732499Y-88911841D01*
X125497096Y-88932436D01*
X125497086Y-88932438D01*
X125268844Y-88993594D01*
X125268835Y-88993598D01*
X125054671Y-89093464D01*
X125054669Y-89093465D01*
X124861097Y-89229005D01*
X124694005Y-89396097D01*
X124584075Y-89553095D01*
X124529498Y-89596720D01*
X124460000Y-89603914D01*
X124397645Y-89572391D01*
X124380925Y-89553095D01*
X124270994Y-89396097D01*
X124103902Y-89229006D01*
X124103895Y-89229001D01*
X123910334Y-89093467D01*
X123910330Y-89093465D01*
X123910328Y-89093464D01*
X123696163Y-88993597D01*
X123696159Y-88993596D01*
X123696155Y-88993594D01*
X123467913Y-88932438D01*
X123467903Y-88932436D01*
X123232501Y-88911841D01*
X123232499Y-88911841D01*
X122997096Y-88932436D01*
X122997086Y-88932438D01*
X122768844Y-88993594D01*
X122768835Y-88993598D01*
X122554671Y-89093464D01*
X122554669Y-89093465D01*
X122361097Y-89229005D01*
X122194005Y-89396097D01*
X122084075Y-89553095D01*
X122029498Y-89596720D01*
X121960000Y-89603914D01*
X121897645Y-89572391D01*
X121880925Y-89553095D01*
X121770994Y-89396097D01*
X121603902Y-89229006D01*
X121603895Y-89229001D01*
X121410334Y-89093467D01*
X121410330Y-89093465D01*
X121410328Y-89093464D01*
X121196163Y-88993597D01*
X121196159Y-88993596D01*
X121196155Y-88993594D01*
X120967913Y-88932438D01*
X120967903Y-88932436D01*
X120732501Y-88911841D01*
X120732499Y-88911841D01*
X120497096Y-88932436D01*
X120497086Y-88932438D01*
X120268844Y-88993594D01*
X120268835Y-88993598D01*
X120054671Y-89093464D01*
X120054669Y-89093465D01*
X119861097Y-89229005D01*
X119694005Y-89396097D01*
X119584075Y-89553095D01*
X119529498Y-89596720D01*
X119460000Y-89603914D01*
X119397645Y-89572391D01*
X119380925Y-89553095D01*
X119270994Y-89396097D01*
X119103902Y-89229006D01*
X119103895Y-89229001D01*
X118910334Y-89093467D01*
X118910330Y-89093465D01*
X118910328Y-89093464D01*
X118696163Y-88993597D01*
X118696159Y-88993596D01*
X118696155Y-88993594D01*
X118467913Y-88932438D01*
X118467903Y-88932436D01*
X118232501Y-88911841D01*
X118232499Y-88911841D01*
X117997096Y-88932436D01*
X117997086Y-88932438D01*
X117768844Y-88993594D01*
X117768835Y-88993598D01*
X117554671Y-89093464D01*
X117554669Y-89093465D01*
X117361097Y-89229005D01*
X117194005Y-89396097D01*
X117084075Y-89553095D01*
X117029498Y-89596720D01*
X116960000Y-89603914D01*
X116897645Y-89572391D01*
X116880925Y-89553095D01*
X116770994Y-89396097D01*
X116603902Y-89229006D01*
X116603895Y-89229001D01*
X116410334Y-89093467D01*
X116410330Y-89093465D01*
X116410328Y-89093464D01*
X116196163Y-88993597D01*
X116196159Y-88993596D01*
X116196155Y-88993594D01*
X115967913Y-88932438D01*
X115967903Y-88932436D01*
X115732501Y-88911841D01*
X115732499Y-88911841D01*
X115497096Y-88932436D01*
X115497086Y-88932438D01*
X115268844Y-88993594D01*
X115268835Y-88993598D01*
X115054671Y-89093464D01*
X115054669Y-89093465D01*
X114861097Y-89229005D01*
X114694005Y-89396097D01*
X114584075Y-89553095D01*
X114529498Y-89596720D01*
X114460000Y-89603914D01*
X114397645Y-89572391D01*
X114380925Y-89553095D01*
X114270994Y-89396097D01*
X114103902Y-89229006D01*
X114103895Y-89229001D01*
X113910334Y-89093467D01*
X113910330Y-89093465D01*
X113910328Y-89093464D01*
X113696163Y-88993597D01*
X113696159Y-88993596D01*
X113696155Y-88993594D01*
X113467913Y-88932438D01*
X113467903Y-88932436D01*
X113232501Y-88911841D01*
X113232499Y-88911841D01*
X112997096Y-88932436D01*
X112997086Y-88932438D01*
X112768844Y-88993594D01*
X112768835Y-88993598D01*
X112554671Y-89093464D01*
X112554669Y-89093465D01*
X112361097Y-89229005D01*
X112194005Y-89396097D01*
X112084075Y-89553095D01*
X112029498Y-89596720D01*
X111960000Y-89603914D01*
X111897645Y-89572391D01*
X111880925Y-89553095D01*
X111770994Y-89396097D01*
X111603902Y-89229006D01*
X111603895Y-89229001D01*
X111410334Y-89093467D01*
X111410330Y-89093465D01*
X111410328Y-89093464D01*
X111196163Y-88993597D01*
X111196159Y-88993596D01*
X111196155Y-88993594D01*
X110967913Y-88932438D01*
X110967903Y-88932436D01*
X110732501Y-88911841D01*
X110732499Y-88911841D01*
X110497096Y-88932436D01*
X110497086Y-88932438D01*
X110268844Y-88993594D01*
X110268835Y-88993598D01*
X110054671Y-89093464D01*
X110054669Y-89093465D01*
X109861097Y-89229005D01*
X109694005Y-89396097D01*
X109584075Y-89553095D01*
X109529498Y-89596720D01*
X109460000Y-89603914D01*
X109397645Y-89572391D01*
X109380925Y-89553095D01*
X109270994Y-89396097D01*
X109103902Y-89229006D01*
X109103895Y-89229001D01*
X108910334Y-89093467D01*
X108910330Y-89093465D01*
X108910328Y-89093464D01*
X108696163Y-88993597D01*
X108696159Y-88993596D01*
X108696155Y-88993594D01*
X108467913Y-88932438D01*
X108467903Y-88932436D01*
X108232501Y-88911841D01*
X108232499Y-88911841D01*
X107997096Y-88932436D01*
X107997086Y-88932438D01*
X107768844Y-88993594D01*
X107768835Y-88993598D01*
X107554671Y-89093464D01*
X107554669Y-89093465D01*
X107361097Y-89229005D01*
X107194005Y-89396097D01*
X107058465Y-89589669D01*
X107058464Y-89589671D01*
X106958598Y-89803835D01*
X106958594Y-89803844D01*
X106897438Y-90032086D01*
X106897436Y-90032096D01*
X106876841Y-90267499D01*
X106876841Y-90267500D01*
X106897436Y-90502903D01*
X106897438Y-90502913D01*
X106958594Y-90731155D01*
X106958596Y-90731159D01*
X106958597Y-90731163D01*
X107019415Y-90861587D01*
X107058465Y-90945330D01*
X107058467Y-90945334D01*
X107161502Y-91092482D01*
X107194001Y-91138896D01*
X107194006Y-91138902D01*
X107361097Y-91305993D01*
X107361103Y-91305998D01*
X107518095Y-91415925D01*
X107561720Y-91470502D01*
X107568914Y-91540000D01*
X107537391Y-91602355D01*
X107518095Y-91619075D01*
X107361097Y-91729005D01*
X107194005Y-91896097D01*
X107058465Y-92089669D01*
X107058464Y-92089671D01*
X106958598Y-92303835D01*
X106958594Y-92303844D01*
X106897438Y-92532086D01*
X106897436Y-92532096D01*
X106876841Y-92767499D01*
X106876841Y-92767500D01*
X106897436Y-93002903D01*
X106897438Y-93002913D01*
X106958594Y-93231155D01*
X106958596Y-93231159D01*
X106958597Y-93231163D01*
X107033828Y-93392495D01*
X107058465Y-93445330D01*
X107058467Y-93445334D01*
X107141656Y-93564139D01*
X107194005Y-93638901D01*
X107361099Y-93805995D01*
X107453837Y-93870931D01*
X107554665Y-93941532D01*
X107554667Y-93941533D01*
X107554670Y-93941535D01*
X107768837Y-94041403D01*
X107997092Y-94102563D01*
X108185418Y-94119039D01*
X108232499Y-94123159D01*
X108232500Y-94123159D01*
X108232501Y-94123159D01*
X108271734Y-94119726D01*
X108467908Y-94102563D01*
X108696163Y-94041403D01*
X108910330Y-93941535D01*
X109103901Y-93805995D01*
X109270995Y-93638901D01*
X109380925Y-93481905D01*
X109435502Y-93438280D01*
X109505000Y-93431086D01*
X109567355Y-93462609D01*
X109584075Y-93481905D01*
X109694000Y-93638895D01*
X109694005Y-93638901D01*
X109861099Y-93805995D01*
X109953837Y-93870931D01*
X110054665Y-93941532D01*
X110054667Y-93941533D01*
X110054670Y-93941535D01*
X110268837Y-94041403D01*
X110497092Y-94102563D01*
X110685418Y-94119039D01*
X110732499Y-94123159D01*
X110732500Y-94123159D01*
X110732501Y-94123159D01*
X110771734Y-94119726D01*
X110967908Y-94102563D01*
X111196163Y-94041403D01*
X111410330Y-93941535D01*
X111603901Y-93805995D01*
X111770995Y-93638901D01*
X111880925Y-93481905D01*
X111935502Y-93438280D01*
X112005000Y-93431086D01*
X112067355Y-93462609D01*
X112084075Y-93481905D01*
X112194000Y-93638895D01*
X112194005Y-93638901D01*
X112361099Y-93805995D01*
X112453837Y-93870931D01*
X112554665Y-93941532D01*
X112554667Y-93941533D01*
X112554670Y-93941535D01*
X112768837Y-94041403D01*
X112997092Y-94102563D01*
X113185418Y-94119039D01*
X113232499Y-94123159D01*
X113232500Y-94123159D01*
X113232501Y-94123159D01*
X113271734Y-94119726D01*
X113467908Y-94102563D01*
X113696163Y-94041403D01*
X113910330Y-93941535D01*
X114103901Y-93805995D01*
X114270995Y-93638901D01*
X114406535Y-93445330D01*
X114506403Y-93231163D01*
X114567563Y-93002908D01*
X114588159Y-92767500D01*
X114567563Y-92532092D01*
X114506403Y-92303837D01*
X114406535Y-92089671D01*
X114394436Y-92072391D01*
X114270994Y-91896097D01*
X114103902Y-91729006D01*
X114103896Y-91729001D01*
X113946905Y-91619075D01*
X113903280Y-91564498D01*
X113896086Y-91495000D01*
X113927609Y-91432645D01*
X113946905Y-91415925D01*
X114051699Y-91342547D01*
X114103901Y-91305995D01*
X114270995Y-91138901D01*
X114380925Y-90981905D01*
X114435502Y-90938280D01*
X114505000Y-90931086D01*
X114567355Y-90962609D01*
X114584075Y-90981905D01*
X114694000Y-91138895D01*
X114694005Y-91138901D01*
X114861099Y-91305995D01*
X114913301Y-91342547D01*
X115054665Y-91441532D01*
X115054667Y-91441533D01*
X115054670Y-91441535D01*
X115268837Y-91541403D01*
X115497092Y-91602563D01*
X115685418Y-91619039D01*
X115732499Y-91623159D01*
X115732500Y-91623159D01*
X115732501Y-91623159D01*
X115779179Y-91619075D01*
X115967908Y-91602563D01*
X116196163Y-91541403D01*
X116410330Y-91441535D01*
X116603901Y-91305995D01*
X116770995Y-91138901D01*
X116880925Y-90981905D01*
X116935502Y-90938280D01*
X117005000Y-90931086D01*
X117067355Y-90962609D01*
X117084075Y-90981905D01*
X117194000Y-91138895D01*
X117194005Y-91138901D01*
X117361099Y-91305995D01*
X117413301Y-91342547D01*
X117554665Y-91441532D01*
X117554667Y-91441533D01*
X117554670Y-91441535D01*
X117768837Y-91541403D01*
X117997092Y-91602563D01*
X118185418Y-91619039D01*
X118232499Y-91623159D01*
X118232500Y-91623159D01*
X118232501Y-91623159D01*
X118279179Y-91619075D01*
X118467908Y-91602563D01*
X118696163Y-91541403D01*
X118910330Y-91441535D01*
X119103901Y-91305995D01*
X119270995Y-91138901D01*
X119380925Y-90981905D01*
X119435502Y-90938280D01*
X119505000Y-90931086D01*
X119567355Y-90962609D01*
X119584075Y-90981905D01*
X119694000Y-91138895D01*
X119694005Y-91138901D01*
X119861099Y-91305995D01*
X119913301Y-91342547D01*
X120054665Y-91441532D01*
X120054667Y-91441533D01*
X120054670Y-91441535D01*
X120268837Y-91541403D01*
X120497092Y-91602563D01*
X120685418Y-91619039D01*
X120732499Y-91623159D01*
X120732500Y-91623159D01*
X120732501Y-91623159D01*
X120779179Y-91619075D01*
X120967908Y-91602563D01*
X121196163Y-91541403D01*
X121410330Y-91441535D01*
X121603901Y-91305995D01*
X121770995Y-91138901D01*
X121880925Y-90981905D01*
X121935502Y-90938280D01*
X122005000Y-90931086D01*
X122067355Y-90962609D01*
X122084075Y-90981905D01*
X122194001Y-91138896D01*
X122194006Y-91138902D01*
X122361097Y-91305993D01*
X122361103Y-91305998D01*
X122518095Y-91415925D01*
X122561720Y-91470502D01*
X122568914Y-91540000D01*
X122537391Y-91602355D01*
X122518095Y-91619075D01*
X122361097Y-91729005D01*
X122194005Y-91896097D01*
X122058465Y-92089669D01*
X122058464Y-92089671D01*
X121958598Y-92303835D01*
X121958594Y-92303844D01*
X121897438Y-92532086D01*
X121897436Y-92532096D01*
X121876841Y-92767499D01*
X121876841Y-92767500D01*
X121897436Y-93002903D01*
X121897438Y-93002913D01*
X121958594Y-93231155D01*
X121958596Y-93231159D01*
X121958597Y-93231163D01*
X122033828Y-93392495D01*
X122058465Y-93445330D01*
X122058467Y-93445334D01*
X122141656Y-93564139D01*
X122194005Y-93638901D01*
X122361099Y-93805995D01*
X122453837Y-93870931D01*
X122554665Y-93941532D01*
X122554667Y-93941533D01*
X122554670Y-93941535D01*
X122768837Y-94041403D01*
X122997092Y-94102563D01*
X123185418Y-94119039D01*
X123232499Y-94123159D01*
X123232500Y-94123159D01*
X123232501Y-94123159D01*
X123271734Y-94119726D01*
X123467908Y-94102563D01*
X123696163Y-94041403D01*
X123910330Y-93941535D01*
X124103901Y-93805995D01*
X124270995Y-93638901D01*
X124380925Y-93481905D01*
X124435502Y-93438280D01*
X124505000Y-93431086D01*
X124567355Y-93462609D01*
X124584075Y-93481905D01*
X124694000Y-93638895D01*
X124694005Y-93638901D01*
X124861099Y-93805995D01*
X124953837Y-93870931D01*
X125054665Y-93941532D01*
X125054667Y-93941533D01*
X125054670Y-93941535D01*
X125268837Y-94041403D01*
X125497092Y-94102563D01*
X125685418Y-94119039D01*
X125732499Y-94123159D01*
X125732500Y-94123159D01*
X125732501Y-94123159D01*
X125771734Y-94119726D01*
X125967908Y-94102563D01*
X126196163Y-94041403D01*
X126230779Y-94025260D01*
X126299856Y-94014768D01*
X126363640Y-94043287D01*
X126401881Y-94101763D01*
X126402436Y-94171630D01*
X126370866Y-94225323D01*
X107767087Y-112829103D01*
X107767068Y-112829121D01*
X107741357Y-112854831D01*
X107741334Y-112854843D01*
X107705028Y-112891150D01*
X107547756Y-113048423D01*
X107427052Y-113189750D01*
X107258862Y-113386676D01*
X106997396Y-113746554D01*
X106997397Y-113746554D01*
X106997394Y-113746558D01*
X106764969Y-114125842D01*
X106764966Y-114125847D01*
X106728735Y-114196956D01*
X106563020Y-114522193D01*
X106392789Y-114933170D01*
X106392788Y-114933171D01*
X106392788Y-114933170D01*
X106294873Y-115234527D01*
X106255330Y-115356229D01*
X106216010Y-115520011D01*
X106151486Y-115788773D01*
X106081899Y-116228136D01*
X106081899Y-116228137D01*
X106046999Y-116671590D01*
X106046999Y-116671591D01*
X106047000Y-116848071D01*
X106047000Y-117843744D01*
X106046999Y-117843766D01*
X106046999Y-117881667D01*
X106046986Y-117881711D01*
X106046988Y-118087907D01*
X106077352Y-118396162D01*
X106077353Y-118396170D01*
X106137784Y-118699955D01*
X106227694Y-118996345D01*
X106324066Y-119229001D01*
X106346233Y-119282515D01*
X106406943Y-119396095D01*
X106492243Y-119555677D01*
X106492249Y-119555687D01*
X106664323Y-119813212D01*
X106664333Y-119813226D01*
X106675224Y-119826497D01*
X106844477Y-120032732D01*
X106853853Y-120044156D01*
X106881166Y-120108466D01*
X106882000Y-120122821D01*
X106882000Y-121165370D01*
X106882001Y-121165376D01*
X106888408Y-121224983D01*
X106938702Y-121359828D01*
X106938706Y-121359835D01*
X107024952Y-121475044D01*
X107024955Y-121475047D01*
X107140164Y-121561293D01*
X107140171Y-121561297D01*
X107275017Y-121611591D01*
X107275016Y-121611591D01*
X107279565Y-121612080D01*
X107334627Y-121618000D01*
X109130372Y-121617999D01*
X109189983Y-121611591D01*
X109324831Y-121561296D01*
X109440046Y-121475046D01*
X109526296Y-121359831D01*
X109564444Y-121257551D01*
X109606315Y-121201617D01*
X109671779Y-121177200D01*
X109740052Y-121192051D01*
X109768307Y-121213203D01*
X109861099Y-121305995D01*
X109957884Y-121373765D01*
X110054665Y-121441532D01*
X110054667Y-121441533D01*
X110054670Y-121441535D01*
X110268837Y-121541403D01*
X110497092Y-121602563D01*
X110673534Y-121618000D01*
X110732499Y-121623159D01*
X110732500Y-121623159D01*
X110732501Y-121623159D01*
X110791466Y-121618000D01*
X110967908Y-121602563D01*
X111196163Y-121541403D01*
X111410330Y-121441535D01*
X111603901Y-121305995D01*
X111770995Y-121138901D01*
X111880925Y-120981905D01*
X111935502Y-120938280D01*
X112005000Y-120931086D01*
X112067355Y-120962609D01*
X112084075Y-120981905D01*
X112192006Y-121136047D01*
X112194005Y-121138901D01*
X112361099Y-121305995D01*
X112457884Y-121373765D01*
X112554665Y-121441532D01*
X112554667Y-121441533D01*
X112554670Y-121441535D01*
X112768837Y-121541403D01*
X112997092Y-121602563D01*
X113173534Y-121618000D01*
X113232499Y-121623159D01*
X113232500Y-121623159D01*
X113359119Y-121612080D01*
X113427618Y-121625846D01*
X113448590Y-121639753D01*
X113683570Y-121832591D01*
X113732994Y-121865614D01*
X113940453Y-122004230D01*
X113940456Y-122004231D01*
X113940464Y-122004237D01*
X114212945Y-122149877D01*
X114498389Y-122268108D01*
X114741021Y-122341707D01*
X114774696Y-122351922D01*
X114794048Y-122357792D01*
X115097073Y-122418064D01*
X115404546Y-122448345D01*
X115559027Y-122448344D01*
X145629417Y-122448344D01*
X145715392Y-122448344D01*
X145761332Y-122448344D01*
X145762784Y-122448344D01*
X145763357Y-122448328D01*
X145878689Y-122448328D01*
X145913188Y-122445309D01*
X146204037Y-122419865D01*
X146525667Y-122363154D01*
X146672080Y-122323923D01*
X146841132Y-122278628D01*
X147148027Y-122166929D01*
X147184596Y-122149877D01*
X147444020Y-122028907D01*
X147726858Y-121865614D01*
X147994387Y-121678291D01*
X148244573Y-121468364D01*
X148290336Y-121422600D01*
X148290347Y-121422592D01*
X148301455Y-121411485D01*
X148318887Y-121394054D01*
X148335890Y-121377049D01*
X148360042Y-121352899D01*
X148360041Y-121352898D01*
X148360042Y-121352898D01*
X148360042Y-121352899D01*
X148420837Y-121292106D01*
X148420840Y-121292100D01*
X148422964Y-121289977D01*
X148423319Y-121289581D01*
X148442931Y-121269970D01*
X148475491Y-121237412D01*
X148632424Y-121050390D01*
X148685421Y-120987232D01*
X148872751Y-120719704D01*
X149036050Y-120436870D01*
X149174077Y-120140879D01*
X149176056Y-120135444D01*
X149285780Y-119833987D01*
X149287788Y-119826496D01*
X149326332Y-119682655D01*
X149370312Y-119518528D01*
X149370312Y-119518527D01*
X149378884Y-119469917D01*
X149394740Y-119380001D01*
X152364532Y-119380001D01*
X152384364Y-119606686D01*
X152384366Y-119606697D01*
X152443258Y-119826488D01*
X152443261Y-119826497D01*
X152539431Y-120032732D01*
X152539432Y-120032734D01*
X152669954Y-120219141D01*
X152830858Y-120380045D01*
X152830861Y-120380047D01*
X153017266Y-120510568D01*
X153223504Y-120606739D01*
X153223509Y-120606740D01*
X153223511Y-120606741D01*
X153276415Y-120620916D01*
X153443308Y-120665635D01*
X153605230Y-120679801D01*
X153669998Y-120685468D01*
X153670000Y-120685468D01*
X153670002Y-120685468D01*
X153726673Y-120680509D01*
X153896692Y-120665635D01*
X154116496Y-120606739D01*
X154322734Y-120510568D01*
X154509139Y-120380047D01*
X154670047Y-120219139D01*
X154800568Y-120032734D01*
X154896739Y-119826496D01*
X154955635Y-119606692D01*
X154975468Y-119380000D01*
X154975434Y-119379617D01*
X154964519Y-119254852D01*
X154955635Y-119153308D01*
X154896739Y-118933504D01*
X154800568Y-118727266D01*
X154670047Y-118540861D01*
X154670045Y-118540858D01*
X154509141Y-118379954D01*
X154322734Y-118249432D01*
X154322732Y-118249431D01*
X154116497Y-118153261D01*
X154116488Y-118153258D01*
X153896697Y-118094366D01*
X153896693Y-118094365D01*
X153896692Y-118094365D01*
X153896691Y-118094364D01*
X153896686Y-118094364D01*
X153670002Y-118074532D01*
X153669998Y-118074532D01*
X153443313Y-118094364D01*
X153443302Y-118094366D01*
X153223511Y-118153258D01*
X153223502Y-118153261D01*
X153017267Y-118249431D01*
X153017265Y-118249432D01*
X152830858Y-118379954D01*
X152669954Y-118540858D01*
X152539432Y-118727265D01*
X152539431Y-118727267D01*
X152443261Y-118933502D01*
X152443258Y-118933511D01*
X152384366Y-119153302D01*
X152384364Y-119153313D01*
X152364532Y-119379998D01*
X152364532Y-119380001D01*
X149394740Y-119380001D01*
X149427029Y-119196893D01*
X149455498Y-118871544D01*
X149455498Y-118761780D01*
X149455500Y-118761771D01*
X149455500Y-118669520D01*
X149455501Y-118622273D01*
X149455500Y-118622268D01*
X149455500Y-113963175D01*
X149455500Y-113961467D01*
X149455494Y-113961263D01*
X149455494Y-113914166D01*
X149455495Y-113858440D01*
X149425958Y-113558535D01*
X149367168Y-113262970D01*
X149279690Y-112974590D01*
X149164367Y-112696174D01*
X149022310Y-112430402D01*
X149010505Y-112412734D01*
X148854898Y-112179850D01*
X148854891Y-112179840D01*
X148854886Y-112179833D01*
X148663708Y-111946882D01*
X148663704Y-111946877D01*
X148654399Y-111937573D01*
X148620911Y-111876251D01*
X148618548Y-111839085D01*
X148625468Y-111760000D01*
X148605635Y-111533308D01*
X148557287Y-111352869D01*
X148546741Y-111313511D01*
X148546738Y-111313502D01*
X148475386Y-111160489D01*
X148450568Y-111107266D01*
X148320047Y-110920861D01*
X148320045Y-110920858D01*
X148159141Y-110759954D01*
X147972734Y-110629432D01*
X147972732Y-110629431D01*
X147766497Y-110533261D01*
X147766488Y-110533258D01*
X147546697Y-110474366D01*
X147546693Y-110474365D01*
X147546692Y-110474365D01*
X147546691Y-110474364D01*
X147546686Y-110474364D01*
X147320002Y-110454532D01*
X147319998Y-110454532D01*
X147093313Y-110474364D01*
X147093302Y-110474366D01*
X146873511Y-110533258D01*
X146873502Y-110533261D01*
X146667267Y-110629431D01*
X146667265Y-110629432D01*
X146480858Y-110759954D01*
X146319954Y-110920858D01*
X146189432Y-111107265D01*
X146189431Y-111107267D01*
X146093261Y-111313502D01*
X146093258Y-111313511D01*
X146034366Y-111533302D01*
X146034364Y-111533313D01*
X146014532Y-111759998D01*
X146014532Y-111760001D01*
X146034364Y-111986686D01*
X146034366Y-111986697D01*
X146093258Y-112206488D01*
X146093261Y-112206497D01*
X146189431Y-112412732D01*
X146189432Y-112412734D01*
X146319954Y-112599141D01*
X146480858Y-112760045D01*
X146480861Y-112760047D01*
X146667266Y-112890568D01*
X146873504Y-112986739D01*
X147093308Y-113045635D01*
X147252357Y-113059550D01*
X147319998Y-113065468D01*
X147320000Y-113065468D01*
X147320001Y-113065468D01*
X147349428Y-113062893D01*
X147387641Y-113059550D01*
X147456141Y-113073316D01*
X147491675Y-113101317D01*
X147521080Y-113134845D01*
X147526022Y-113141285D01*
X147558374Y-113189703D01*
X147625507Y-113290176D01*
X147629565Y-113297206D01*
X147708766Y-113457810D01*
X147711863Y-113465288D01*
X147763001Y-113615936D01*
X147769424Y-113634858D01*
X147771525Y-113642700D01*
X147806457Y-113818316D01*
X147807517Y-113826365D01*
X147819366Y-114007175D01*
X147819499Y-114011230D01*
X147819499Y-114098822D01*
X147819500Y-114098839D01*
X147819500Y-118006380D01*
X147799815Y-118073419D01*
X147747011Y-118119174D01*
X147677853Y-118129118D01*
X147663406Y-118126155D01*
X147570000Y-118101126D01*
X147570000Y-119064314D01*
X147558045Y-119052359D01*
X147445148Y-118994835D01*
X147351481Y-118980000D01*
X147288519Y-118980000D01*
X147194852Y-118994835D01*
X147081955Y-119052359D01*
X147070000Y-119064314D01*
X147070000Y-118101127D01*
X146873671Y-118153734D01*
X146667517Y-118249865D01*
X146481179Y-118380342D01*
X146320342Y-118541179D01*
X146189865Y-118727517D01*
X146093734Y-118933673D01*
X146093730Y-118933682D01*
X146041127Y-119129999D01*
X146041128Y-119130000D01*
X147004314Y-119130000D01*
X146992359Y-119141955D01*
X146934835Y-119254852D01*
X146915014Y-119380000D01*
X146934835Y-119505148D01*
X146992359Y-119618045D01*
X147004314Y-119630000D01*
X146041128Y-119630000D01*
X146093730Y-119826317D01*
X146093734Y-119826326D01*
X146189865Y-120032482D01*
X146320342Y-120218820D01*
X146481181Y-120379659D01*
X146551999Y-120429246D01*
X146595624Y-120483822D01*
X146602818Y-120553321D01*
X146571296Y-120615676D01*
X146528328Y-120645382D01*
X146413561Y-120692920D01*
X146406993Y-120695218D01*
X146186949Y-120758610D01*
X146180165Y-120760158D01*
X145954418Y-120798514D01*
X145947503Y-120799293D01*
X145716842Y-120812246D01*
X145713365Y-120812344D01*
X135184902Y-120812344D01*
X135117863Y-120792659D01*
X135072108Y-120739855D01*
X135062164Y-120670697D01*
X135091189Y-120607141D01*
X135132497Y-120575962D01*
X135133861Y-120575326D01*
X135272734Y-120510568D01*
X135459139Y-120380047D01*
X135620047Y-120219139D01*
X135750568Y-120032734D01*
X135846739Y-119826496D01*
X135905635Y-119606692D01*
X135925468Y-119380000D01*
X135925434Y-119379617D01*
X135914519Y-119254852D01*
X135905635Y-119153308D01*
X135846739Y-118933504D01*
X135750568Y-118727266D01*
X135620047Y-118540861D01*
X135620045Y-118540858D01*
X135459141Y-118379954D01*
X135272734Y-118249432D01*
X135272732Y-118249431D01*
X135080072Y-118159591D01*
X135027633Y-118113418D01*
X135008481Y-118046224D01*
X135028697Y-117979343D01*
X135044791Y-117959533D01*
X144881675Y-108122650D01*
X144881680Y-108122646D01*
X144891884Y-108112441D01*
X144891886Y-108112441D01*
X144918051Y-108086274D01*
X144918083Y-108086257D01*
X144952686Y-108051653D01*
X144952687Y-108051654D01*
X145075182Y-107929158D01*
X145294979Y-107661332D01*
X145487466Y-107373251D01*
X145650789Y-107067691D01*
X145783376Y-106747593D01*
X145883950Y-106416041D01*
X145951542Y-106076228D01*
X145985501Y-105731426D01*
X145985500Y-105560212D01*
X145985633Y-105556157D01*
X145987597Y-105526196D01*
X146001406Y-105315511D01*
X146002465Y-105307475D01*
X146007778Y-105280765D01*
X146049120Y-105072926D01*
X146051212Y-105065120D01*
X146080164Y-104979827D01*
X146120352Y-104922676D01*
X146185061Y-104896323D01*
X146253746Y-104909137D01*
X146299156Y-104948565D01*
X146320338Y-104978816D01*
X146481179Y-105139657D01*
X146667517Y-105270134D01*
X146873673Y-105366265D01*
X146873682Y-105366269D01*
X147069999Y-105418872D01*
X147070000Y-105418871D01*
X147070000Y-104455686D01*
X147081955Y-104467641D01*
X147194852Y-104525165D01*
X147288519Y-104540000D01*
X147351481Y-104540000D01*
X147445148Y-104525165D01*
X147558045Y-104467641D01*
X147570000Y-104455686D01*
X147570000Y-105418872D01*
X147766317Y-105366269D01*
X147766326Y-105366265D01*
X147972482Y-105270134D01*
X148158820Y-105139657D01*
X148319657Y-104978820D01*
X148450134Y-104792482D01*
X148546265Y-104586326D01*
X148546269Y-104586317D01*
X148598872Y-104390000D01*
X147635686Y-104390000D01*
X147647641Y-104378045D01*
X147705165Y-104265148D01*
X147724986Y-104140000D01*
X147705165Y-104014852D01*
X147647641Y-103901955D01*
X147635686Y-103890000D01*
X148598872Y-103890000D01*
X148598871Y-103889999D01*
X148574117Y-103797615D01*
X148575780Y-103727765D01*
X148614942Y-103669902D01*
X148679170Y-103642398D01*
X148699290Y-103641639D01*
X148997277Y-103654648D01*
X149002630Y-103655117D01*
X149321561Y-103697105D01*
X149326877Y-103698043D01*
X149582377Y-103754686D01*
X149627032Y-103764586D01*
X149640921Y-103767665D01*
X149646132Y-103769060D01*
X149952926Y-103865792D01*
X149958003Y-103867640D01*
X150255200Y-103990743D01*
X150260070Y-103993014D01*
X150545425Y-104141561D01*
X150550074Y-104144246D01*
X150821377Y-104317086D01*
X150825796Y-104320180D01*
X150962339Y-104424953D01*
X151079533Y-104514880D01*
X151081005Y-104516009D01*
X151085134Y-104519474D01*
X151324292Y-104738623D01*
X151324325Y-104738653D01*
X151387727Y-104802055D01*
X151387745Y-104802071D01*
X156966545Y-110380871D01*
X157000030Y-110442194D01*
X156995046Y-110511886D01*
X156953174Y-110567819D01*
X156931269Y-110580934D01*
X156827267Y-110629431D01*
X156827265Y-110629432D01*
X156640858Y-110759954D01*
X156479954Y-110920858D01*
X156349432Y-111107265D01*
X156349431Y-111107267D01*
X156253261Y-111313502D01*
X156253258Y-111313511D01*
X156194366Y-111533302D01*
X156194364Y-111533313D01*
X156174532Y-111759998D01*
X156174532Y-111760001D01*
X156194364Y-111986686D01*
X156194366Y-111986697D01*
X156253258Y-112206488D01*
X156253261Y-112206497D01*
X156349431Y-112412732D01*
X156349432Y-112412734D01*
X156479954Y-112599141D01*
X156640858Y-112760045D01*
X156640861Y-112760047D01*
X156827266Y-112890568D01*
X157033504Y-112986739D01*
X157253308Y-113045635D01*
X157412357Y-113059550D01*
X157479998Y-113065468D01*
X157479999Y-113065468D01*
X157479999Y-113065467D01*
X157480000Y-113065468D01*
X157559082Y-113058548D01*
X157627579Y-113072314D01*
X157657569Y-113094395D01*
X160423174Y-115860001D01*
X160453424Y-115909364D01*
X160462818Y-115938278D01*
X160462821Y-115938284D01*
X160557467Y-116102216D01*
X160670841Y-116228130D01*
X160684129Y-116242888D01*
X160837265Y-116354148D01*
X160837270Y-116354151D01*
X161010192Y-116431142D01*
X161010197Y-116431144D01*
X161195354Y-116470500D01*
X161195355Y-116470500D01*
X161384644Y-116470500D01*
X161384646Y-116470500D01*
X161569803Y-116431144D01*
X161742730Y-116354151D01*
X161895871Y-116242888D01*
X162022533Y-116102216D01*
X162117179Y-115938284D01*
X162154407Y-115823707D01*
X162193844Y-115766033D01*
X162258203Y-115738834D01*
X162327049Y-115750748D01*
X162360019Y-115774345D01*
X162781151Y-116195477D01*
X162781161Y-116195488D01*
X162783493Y-116197820D01*
X162783494Y-116197821D01*
X162843217Y-116257544D01*
X162845290Y-116259721D01*
X163043478Y-116478388D01*
X163049292Y-116484803D01*
X163053154Y-116489509D01*
X163233195Y-116732265D01*
X163236578Y-116737328D01*
X163391949Y-116996554D01*
X163394819Y-117001922D01*
X163524039Y-117275132D01*
X163526369Y-117280757D01*
X163628187Y-117565320D01*
X163629954Y-117571146D01*
X163703388Y-117864309D01*
X163704575Y-117870280D01*
X163748921Y-118169235D01*
X163749517Y-118175293D01*
X163764425Y-118478751D01*
X163764500Y-118481793D01*
X163764500Y-118569203D01*
X163764510Y-118569402D01*
X163764510Y-118669522D01*
X163791800Y-119016310D01*
X163793938Y-119043469D01*
X163807643Y-119130000D01*
X163851005Y-119403796D01*
X163852615Y-119413956D01*
X163877719Y-119518522D01*
X163940180Y-119778698D01*
X163940180Y-119778699D01*
X164056091Y-120135443D01*
X164056092Y-120135444D01*
X164199638Y-120481996D01*
X164369931Y-120816217D01*
X164565922Y-121136047D01*
X164565925Y-121136051D01*
X164565924Y-121136051D01*
X164786404Y-121439517D01*
X164830018Y-121490582D01*
X165030013Y-121724746D01*
X165099502Y-121794235D01*
X165099513Y-121794247D01*
X165126306Y-121821040D01*
X165126324Y-121821073D01*
X165162625Y-121857373D01*
X165162625Y-121857374D01*
X165295245Y-121989993D01*
X165340809Y-122028908D01*
X165580475Y-122233603D01*
X165580478Y-122233605D01*
X165883945Y-122454086D01*
X166203776Y-122650078D01*
X166469638Y-122785541D01*
X166537998Y-122820372D01*
X166884555Y-122963919D01*
X167241296Y-123079830D01*
X167241297Y-123079830D01*
X167377948Y-123112636D01*
X167606040Y-123167395D01*
X167606044Y-123167395D01*
X167606050Y-123167397D01*
X167831732Y-123203140D01*
X167976528Y-123226073D01*
X167976531Y-123226073D01*
X167976536Y-123226074D01*
X168350474Y-123255501D01*
X168350475Y-123255501D01*
X168350476Y-123255500D01*
X168350477Y-123255501D01*
X168538030Y-123255500D01*
X168624005Y-123255500D01*
X176153725Y-123255500D01*
X176153759Y-123255501D01*
X176157091Y-123255501D01*
X176157095Y-123255502D01*
X176191685Y-123255501D01*
X176191756Y-123255521D01*
X176243070Y-123255520D01*
X176243070Y-123255521D01*
X176406537Y-123255518D01*
X176731894Y-123223467D01*
X177052544Y-123159680D01*
X177365397Y-123064773D01*
X177667442Y-122939658D01*
X177955770Y-122785541D01*
X178227603Y-122603905D01*
X178480325Y-122396501D01*
X178524907Y-122351917D01*
X178524916Y-122351911D01*
X178595913Y-122280913D01*
X178608718Y-122268108D01*
X178656707Y-122220120D01*
X178656708Y-122220117D01*
X178658855Y-122217971D01*
X178659125Y-122217669D01*
X178711485Y-122165311D01*
X178849648Y-121996958D01*
X178907392Y-121957626D01*
X178977237Y-121955755D01*
X179037005Y-121991942D01*
X179067721Y-122054698D01*
X179069500Y-122075625D01*
X179069500Y-124335500D01*
X179049815Y-124402539D01*
X178997011Y-124448294D01*
X178945500Y-124459500D01*
X101724500Y-124459500D01*
X101657461Y-124439815D01*
X101611706Y-124387011D01*
X101600500Y-124335500D01*
X101600500Y-122567163D01*
X104503228Y-122567163D01*
X104533268Y-122763264D01*
X104533271Y-122763277D01*
X104602173Y-122949315D01*
X104602177Y-122949324D01*
X104707116Y-123117684D01*
X104707121Y-123117691D01*
X104807667Y-123223465D01*
X104843809Y-123261486D01*
X105006646Y-123374824D01*
X105188965Y-123453063D01*
X105383301Y-123493000D01*
X105531974Y-123493000D01*
X105679880Y-123477959D01*
X105751978Y-123455338D01*
X105869178Y-123418567D01*
X106042646Y-123322284D01*
X106193182Y-123193053D01*
X106314622Y-123036166D01*
X106401995Y-122858044D01*
X106451724Y-122665980D01*
X106461772Y-122467837D01*
X106431730Y-122271727D01*
X106362825Y-122085680D01*
X106312063Y-122004239D01*
X106257883Y-121917315D01*
X106257878Y-121917308D01*
X106121193Y-121773516D01*
X106121192Y-121773515D01*
X105958353Y-121660175D01*
X105776035Y-121581937D01*
X105581699Y-121542000D01*
X105433027Y-121542000D01*
X105433026Y-121542000D01*
X105285119Y-121557040D01*
X105095829Y-121616430D01*
X105095820Y-121616434D01*
X104922352Y-121712717D01*
X104922351Y-121712717D01*
X104771819Y-121841945D01*
X104771817Y-121841946D01*
X104650379Y-121998831D01*
X104650377Y-121998835D01*
X104563003Y-122176959D01*
X104513277Y-122369011D01*
X104513276Y-122369017D01*
X104503228Y-122567162D01*
X104503228Y-122567163D01*
X101600500Y-122567163D01*
X101600500Y-88067163D01*
X127503228Y-88067163D01*
X127533268Y-88263264D01*
X127533271Y-88263277D01*
X127602173Y-88449315D01*
X127602177Y-88449324D01*
X127707116Y-88617684D01*
X127707121Y-88617691D01*
X127843806Y-88761483D01*
X127843809Y-88761486D01*
X128006646Y-88874824D01*
X128188965Y-88953063D01*
X128383301Y-88993000D01*
X128531974Y-88993000D01*
X128679880Y-88977959D01*
X128751978Y-88955338D01*
X128869178Y-88918567D01*
X129042646Y-88822284D01*
X129193182Y-88693053D01*
X129314622Y-88536166D01*
X129401995Y-88358044D01*
X129451724Y-88165980D01*
X129461772Y-87967837D01*
X129431730Y-87771727D01*
X129362825Y-87585680D01*
X129350247Y-87565500D01*
X129257883Y-87417315D01*
X129257878Y-87417308D01*
X129121193Y-87273516D01*
X129121192Y-87273515D01*
X128958353Y-87160175D01*
X128776035Y-87081937D01*
X128581699Y-87042000D01*
X128433027Y-87042000D01*
X128433026Y-87042000D01*
X128285119Y-87057040D01*
X128095829Y-87116430D01*
X128095820Y-87116434D01*
X127922352Y-87212717D01*
X127922351Y-87212717D01*
X127771819Y-87341945D01*
X127771817Y-87341946D01*
X127650379Y-87498831D01*
X127650377Y-87498835D01*
X127563003Y-87676959D01*
X127513277Y-87869011D01*
X127513276Y-87869017D01*
X127503228Y-88067162D01*
X127503228Y-88067163D01*
X101600500Y-88067163D01*
X101600500Y-86484500D01*
X101620185Y-86417461D01*
X101672989Y-86371706D01*
X101724500Y-86360500D01*
X134386650Y-86360500D01*
X134453689Y-86380185D01*
G37*
%TD.AperFunction*%
%TA.AperFunction,Conductor*%
G36*
X155324688Y-94416763D02*
G01*
X155375313Y-94464918D01*
X155392000Y-94527047D01*
X155392000Y-94675926D01*
X155392027Y-94676960D01*
X155392027Y-94761086D01*
X155392027Y-94762651D01*
X155409157Y-94914713D01*
X155422005Y-95028764D01*
X155481587Y-95289837D01*
X155481589Y-95289842D01*
X155570026Y-95542599D01*
X155570035Y-95542620D01*
X155686209Y-95783873D01*
X155686213Y-95783880D01*
X155686215Y-95783884D01*
X155828684Y-96010634D01*
X155995645Y-96220007D01*
X156031737Y-96256101D01*
X156031740Y-96256106D01*
X156153452Y-96377823D01*
X156153496Y-96377863D01*
X156910241Y-97134609D01*
X156910255Y-97134635D01*
X156946559Y-97170938D01*
X156946559Y-97170939D01*
X157094018Y-97318397D01*
X157285911Y-97482289D01*
X157368758Y-97553048D01*
X157406951Y-97611555D01*
X157407449Y-97681423D01*
X157370096Y-97740469D01*
X157306749Y-97769947D01*
X157299034Y-97770866D01*
X157253399Y-97774858D01*
X157253389Y-97774860D01*
X157033682Y-97833730D01*
X157033673Y-97833734D01*
X156827517Y-97929865D01*
X156641179Y-98060342D01*
X156480342Y-98221179D01*
X156349865Y-98407517D01*
X156253734Y-98613673D01*
X156253730Y-98613682D01*
X156201127Y-98809999D01*
X156201128Y-98810000D01*
X157164314Y-98810000D01*
X157152359Y-98821955D01*
X157094835Y-98934852D01*
X157075014Y-99060000D01*
X157094835Y-99185148D01*
X157152359Y-99298045D01*
X157164314Y-99310000D01*
X156201128Y-99310000D01*
X156253730Y-99506317D01*
X156253734Y-99506326D01*
X156349865Y-99712482D01*
X156480342Y-99898820D01*
X156641179Y-100059657D01*
X156827517Y-100190134D01*
X157033673Y-100286265D01*
X157033682Y-100286269D01*
X157229999Y-100338872D01*
X157230000Y-100338871D01*
X157230000Y-99375686D01*
X157241955Y-99387641D01*
X157354852Y-99445165D01*
X157448519Y-99460000D01*
X157511481Y-99460000D01*
X157605148Y-99445165D01*
X157718045Y-99387641D01*
X157730000Y-99375686D01*
X157730000Y-100338872D01*
X157926317Y-100286269D01*
X157926326Y-100286265D01*
X158132482Y-100190134D01*
X158318820Y-100059657D01*
X158479657Y-99898820D01*
X158610134Y-99712482D01*
X158706265Y-99506326D01*
X158706269Y-99506317D01*
X158758872Y-99310000D01*
X157795686Y-99310000D01*
X157807641Y-99298045D01*
X157865165Y-99185148D01*
X157884986Y-99060000D01*
X157865165Y-98934852D01*
X157807641Y-98821955D01*
X157795686Y-98810000D01*
X158758872Y-98810000D01*
X158758872Y-98809999D01*
X158706269Y-98613682D01*
X158706267Y-98613678D01*
X158681204Y-98559930D01*
X158670712Y-98490852D01*
X158699231Y-98427068D01*
X158757707Y-98388828D01*
X158827575Y-98388273D01*
X158841029Y-98392959D01*
X158861144Y-98401291D01*
X158861149Y-98401293D01*
X158861148Y-98401293D01*
X159257808Y-98530174D01*
X159257807Y-98530174D01*
X159523335Y-98593920D01*
X159663357Y-98627536D01*
X159663361Y-98627536D01*
X159663367Y-98627538D01*
X159914302Y-98667280D01*
X160075297Y-98692779D01*
X160075300Y-98692779D01*
X160075305Y-98692780D01*
X160211077Y-98703464D01*
X160491086Y-98725501D01*
X160699624Y-98725500D01*
X160758724Y-98725500D01*
X161088479Y-98739899D01*
X161093832Y-98740368D01*
X161418398Y-98783100D01*
X161423709Y-98784037D01*
X161743302Y-98854891D01*
X161748512Y-98856288D01*
X162060707Y-98954724D01*
X162065792Y-98956575D01*
X162368221Y-99081849D01*
X162373125Y-99084136D01*
X162463135Y-99130992D01*
X162663486Y-99235290D01*
X162668142Y-99237978D01*
X162944233Y-99413870D01*
X162948657Y-99416968D01*
X163177042Y-99592216D01*
X163208353Y-99616242D01*
X163212498Y-99619720D01*
X163456285Y-99843113D01*
X163519290Y-99906118D01*
X163519308Y-99906134D01*
X166316005Y-102702831D01*
X166349490Y-102764154D01*
X166351852Y-102801318D01*
X166344532Y-102884996D01*
X166344532Y-102885001D01*
X166364364Y-103111686D01*
X166364366Y-103111697D01*
X166423258Y-103331488D01*
X166423261Y-103331497D01*
X166519431Y-103537732D01*
X166519432Y-103537734D01*
X166649954Y-103724141D01*
X166810858Y-103885045D01*
X166810861Y-103885047D01*
X166997266Y-104015568D01*
X167055275Y-104042618D01*
X167107714Y-104088791D01*
X167126866Y-104155984D01*
X167106650Y-104222865D01*
X167055275Y-104267382D01*
X166997267Y-104294431D01*
X166997265Y-104294432D01*
X166810858Y-104424954D01*
X166649954Y-104585858D01*
X166519432Y-104772265D01*
X166519431Y-104772267D01*
X166423261Y-104978502D01*
X166423258Y-104978511D01*
X166364366Y-105198302D01*
X166364364Y-105198313D01*
X166344532Y-105424998D01*
X166344532Y-105425001D01*
X166364364Y-105651686D01*
X166364366Y-105651697D01*
X166423258Y-105871488D01*
X166423261Y-105871497D01*
X166519431Y-106077732D01*
X166519432Y-106077734D01*
X166649954Y-106264141D01*
X166810858Y-106425045D01*
X166810861Y-106425047D01*
X166997266Y-106555568D01*
X167055865Y-106582893D01*
X167108305Y-106629065D01*
X167127457Y-106696258D01*
X167107242Y-106763139D01*
X167055867Y-106807657D01*
X166997515Y-106834867D01*
X166811179Y-106965342D01*
X166650342Y-107126179D01*
X166519865Y-107312517D01*
X166423734Y-107518673D01*
X166423730Y-107518682D01*
X166371127Y-107714999D01*
X166371128Y-107715000D01*
X167334314Y-107715000D01*
X167322359Y-107726955D01*
X167264835Y-107839852D01*
X167245014Y-107965000D01*
X167264835Y-108090148D01*
X167322359Y-108203045D01*
X167334314Y-108215000D01*
X166371128Y-108215000D01*
X166423730Y-108411317D01*
X166423734Y-108411326D01*
X166519865Y-108617482D01*
X166650342Y-108803820D01*
X166811179Y-108964657D01*
X166997517Y-109095134D01*
X167203673Y-109191265D01*
X167203682Y-109191269D01*
X167399999Y-109243872D01*
X167400000Y-109243871D01*
X167400000Y-108280686D01*
X167411955Y-108292641D01*
X167524852Y-108350165D01*
X167618519Y-108365000D01*
X167681481Y-108365000D01*
X167775148Y-108350165D01*
X167888045Y-108292641D01*
X167900000Y-108280686D01*
X167900000Y-109243872D01*
X168096317Y-109191269D01*
X168096326Y-109191265D01*
X168302483Y-109095133D01*
X168302489Y-109095129D01*
X168432529Y-109004074D01*
X168498735Y-108981746D01*
X168566502Y-108998756D01*
X168614316Y-109049703D01*
X168627337Y-109096801D01*
X168651391Y-109433086D01*
X168715025Y-109875653D01*
X168810068Y-110312550D01*
X168810069Y-110312553D01*
X168936039Y-110741561D01*
X169061371Y-111077586D01*
X169092294Y-111160491D01*
X169278032Y-111567201D01*
X169413450Y-111815199D01*
X169492316Y-111959632D01*
X169509710Y-111986697D01*
X169734044Y-112335768D01*
X170001995Y-112693710D01*
X170001995Y-112693709D01*
X170294802Y-113031627D01*
X170294802Y-113031626D01*
X170420303Y-113157128D01*
X170420313Y-113157140D01*
X170520736Y-113257563D01*
X170520742Y-113257568D01*
X175143181Y-117880008D01*
X175176666Y-117941331D01*
X175179500Y-117967689D01*
X175179500Y-119007870D01*
X175179501Y-119007876D01*
X175185908Y-119067483D01*
X175236202Y-119202328D01*
X175236206Y-119202335D01*
X175322452Y-119317544D01*
X175322455Y-119317547D01*
X175437664Y-119403793D01*
X175437671Y-119403797D01*
X175464909Y-119413956D01*
X175569598Y-119453002D01*
X175625531Y-119494873D01*
X175649949Y-119560337D01*
X175635098Y-119628610D01*
X175613947Y-119656865D01*
X175491886Y-119778926D01*
X175356400Y-119972420D01*
X175356399Y-119972422D01*
X175256570Y-120186507D01*
X175256567Y-120186513D01*
X175199364Y-120399999D01*
X175199364Y-120400000D01*
X176096314Y-120400000D01*
X176070507Y-120440156D01*
X176030000Y-120578111D01*
X176030000Y-120721889D01*
X176070507Y-120859844D01*
X176096314Y-120900000D01*
X175199364Y-120900000D01*
X175256567Y-121113486D01*
X175256570Y-121113492D01*
X175356399Y-121327578D01*
X175424179Y-121424376D01*
X175446506Y-121490582D01*
X175429496Y-121558350D01*
X175378548Y-121606163D01*
X175322604Y-121619500D01*
X168627038Y-121619500D01*
X168627018Y-121619499D01*
X168539547Y-121619499D01*
X168536505Y-121619424D01*
X168233528Y-121604542D01*
X168227469Y-121603946D01*
X167928933Y-121559663D01*
X167922962Y-121558476D01*
X167630203Y-121485145D01*
X167624377Y-121483378D01*
X167340209Y-121381702D01*
X167334584Y-121379372D01*
X167061749Y-121250331D01*
X167056384Y-121247463D01*
X166875249Y-121138896D01*
X166797515Y-121092304D01*
X166792454Y-121088922D01*
X166550040Y-120909137D01*
X166545333Y-120905274D01*
X166527150Y-120888794D01*
X166518584Y-120881030D01*
X166482133Y-120821424D01*
X166483693Y-120751571D01*
X166522770Y-120693651D01*
X166586958Y-120666053D01*
X166591060Y-120665625D01*
X166596607Y-120665139D01*
X166596610Y-120665139D01*
X166816317Y-120606269D01*
X166816326Y-120606265D01*
X167022482Y-120510134D01*
X167208820Y-120379657D01*
X167369657Y-120218820D01*
X167500134Y-120032482D01*
X167596265Y-119826326D01*
X167596269Y-119826317D01*
X167648872Y-119630000D01*
X166685686Y-119630000D01*
X166697641Y-119618045D01*
X166755165Y-119505148D01*
X166774986Y-119380000D01*
X166755165Y-119254852D01*
X166697641Y-119141955D01*
X166685686Y-119130000D01*
X167648872Y-119130000D01*
X167648872Y-119129999D01*
X167596269Y-118933682D01*
X167596265Y-118933673D01*
X167500134Y-118727517D01*
X167369657Y-118541179D01*
X167208820Y-118380342D01*
X167022482Y-118249865D01*
X166816328Y-118153734D01*
X166620000Y-118101127D01*
X166620000Y-119064314D01*
X166608045Y-119052359D01*
X166495148Y-118994835D01*
X166401481Y-118980000D01*
X166338519Y-118980000D01*
X166244852Y-118994835D01*
X166131955Y-119052359D01*
X166120000Y-119064314D01*
X166120000Y-118101127D01*
X165923671Y-118153734D01*
X165717516Y-118249866D01*
X165717512Y-118249868D01*
X165591594Y-118338037D01*
X165525388Y-118360364D01*
X165457620Y-118343354D01*
X165409808Y-118292405D01*
X165396853Y-118246194D01*
X165374293Y-117959528D01*
X165371041Y-117918207D01*
X165371041Y-117918206D01*
X165312309Y-117547382D01*
X165308637Y-117532086D01*
X165224664Y-117182315D01*
X165214982Y-117152517D01*
X165108649Y-116825255D01*
X165072228Y-116737328D01*
X164964972Y-116478388D01*
X164794526Y-116143868D01*
X164794523Y-116143864D01*
X164794520Y-116143857D01*
X164598362Y-115823757D01*
X164598359Y-115823752D01*
X164377681Y-115520014D01*
X164377679Y-115520011D01*
X164237787Y-115356219D01*
X164133852Y-115234527D01*
X164059701Y-115160376D01*
X164059697Y-115160369D01*
X163938000Y-115038672D01*
X163937977Y-115038651D01*
X152548988Y-103649662D01*
X152548986Y-103649659D01*
X152447434Y-103548107D01*
X152447358Y-103548035D01*
X152437055Y-103537732D01*
X152331508Y-103432185D01*
X152331505Y-103432182D01*
X152009723Y-103157352D01*
X151667375Y-102908621D01*
X151667374Y-102908621D01*
X151667373Y-102908620D01*
X151431626Y-102764154D01*
X151306565Y-102687516D01*
X151066766Y-102565332D01*
X150929510Y-102495396D01*
X150929505Y-102495394D01*
X150929506Y-102495394D01*
X150538545Y-102333453D01*
X150391183Y-102285572D01*
X150136089Y-102202687D01*
X149724609Y-102103899D01*
X149306646Y-102037701D01*
X149306640Y-102037700D01*
X149306639Y-102037700D01*
X148884780Y-102004500D01*
X148884778Y-102004500D01*
X148719131Y-102004500D01*
X148011586Y-102004500D01*
X148011566Y-102004499D01*
X147973940Y-102004499D01*
X147973902Y-102004488D01*
X147874715Y-102004489D01*
X147807676Y-101984805D01*
X147761920Y-101932002D01*
X147751976Y-101862843D01*
X147781000Y-101799287D01*
X147787018Y-101792823D01*
X154818758Y-94761086D01*
X154818759Y-94761086D01*
X155094662Y-94506041D01*
X155098364Y-94502881D01*
X155191234Y-94429667D01*
X155256065Y-94403623D01*
X155324688Y-94416763D01*
G37*
%TD.AperFunction*%
%TD*%
M02*
